<?xml version="1.0" encoding="UTF-8"?>
<svg id="Ebene_2" viewBox="0 0 28.34 28.34" xmlns="http://www.w3.org/2000/svg">
  <defs>
    <style>.cls-1 {
      fill: #141322;
    }</style>
  </defs>
  <g id="Ebene_2-2">
    <g>
      <path class="cls-1"
            d="M28.34,7.09v14.17c-.02,.08-.05,.16-.06,.24-.1,.76-.29,1.5-.61,2.19-1.09,2.32-2.87,3.82-5.37,4.44-.35,.09-.7,.14-1.05,.21H7.09c-.25-.05-.5-.09-.76-.14C2.62,27.46,0,24.27,0,20.48,0,16.28,0,12.07,0,7.87c0-.5,.04-1.02,.13-1.51C.71,3.28,3.13,.81,6.22,.17,6.77,.06,7.33,.01,7.89,0,12.08,0,16.27,0,20.45,0c1.12,0,2.2,.2,3.22,.67,2.33,1.08,3.83,2.87,4.46,5.37,.09,.35,.14,.7,.21,1.05ZM2.54,14.17h-.01c0,2.06,0,4.11,0,6.17,0,.63,.07,1.25,.27,1.85,.67,2.05,2.66,3.64,5.15,3.63,4.15-.03,8.3,0,12.45-.02,.6,0,1.22-.09,1.79-.27,2.07-.64,3.65-2.65,3.63-5.13-.02-4.15,0-8.3-.02-12.45,0-.6-.09-1.22-.27-1.79-.64-2.07-2.66-3.65-5.13-3.63-4.15,.02-8.3,0-12.45,0-.89,0-1.75,.15-2.53,.58-1.76,.96-2.8,2.43-2.86,4.45-.07,2.2-.02,4.41-.02,6.61Z"/>
      <path class="cls-1"
            d="M14.18,6.87c4.03,0,7.31,3.3,7.3,7.32,0,4.02-3.29,7.29-7.31,7.29-4.03,0-7.31-3.29-7.3-7.32,0-4.02,3.29-7.29,7.31-7.29Zm-.02,12.08c2.64,0,4.78-2.12,4.78-4.77,0-2.64-2.1-4.76-4.75-4.78-2.64-.02-4.78,2.1-4.8,4.75-.01,2.64,2.11,4.78,4.76,4.79Z"/>
      <path class="cls-1"
            d="M21.79,8.42c-1.02,0-1.85-.82-1.86-1.83,0-1.01,.82-1.84,1.84-1.86,.99-.02,1.85,.83,1.86,1.84,.01,1.01-.82,1.85-1.84,1.85Z"/>
    </g>
  </g>
</svg>
