<?xml version="1.0" encoding="UTF-8"?><svg id="Ebene_2" xmlns="http://www.w3.org/2000/svg" viewBox="0 0 21.57 25.28"><defs><style>.cls-1{fill:#fff;fill-rule:evenodd;}</style></defs><g id="Ebene_2-2"><path class="cls-1" d="M15.61,0V.02c0,.38,.11,5.95,5.95,6.29,0,5.18,0,0,0,4.3-.44,.03-3.84-.22-5.96-2.11v8.37c.05,3.79-2.06,7.5-6.01,8.25-1.11,.21-2.1,.23-3.77-.13C-3.82,22.11-.61,7.82,9.06,9.35c0,4.61,0,0,0,4.61-4-.59-5.33,2.74-4.27,5.12,.97,2.17,4.95,2.64,6.33-.42,.16-.6,.24-1.28,.24-2.05V0h4.25Z"/></g></svg>