<?xml version="1.0" encoding="UTF-8"?><svg id="Ebene_2" xmlns="http://www.w3.org/2000/svg" viewBox="0 0 30.87 25.17"><defs><style>.cls-1{fill:#fff;}</style></defs><g id="Ebene_2-2"><path class="cls-1" d="M0,22.32c3.42,.31,6.48-.52,9.28-2.62-1.93-.12-3.48-.87-4.69-2.27-.54-.63-.95-1.33-1.2-2.17,.93,.15,1.82,.13,2.78-.11-1.52-.37-2.71-1.12-3.63-2.28-.92-1.16-1.37-2.49-1.38-4.02,.88,.43,1.77,.73,2.74,.76C1.12,7.27,.5,4.47,2.04,1.12c3.46,4.08,7.79,6.31,13.05,6.67-.02-.65-.07-1.29-.04-1.91,.09-1.62,.76-2.99,1.92-4.11C18.31,.49,19.93-.1,21.78,.01c1.52,.1,2.85,.68,3.95,1.74,.2,.19,.36,.24,.63,.17,1.27-.31,2.47-.77,3.61-1.44-.07,.89-1.05,2.19-2.54,3.46,.37-.07,.75-.12,1.12-.21,.39-.09,.78-.2,1.16-.33,.37-.12,.73-.26,1.1-.39,.02,.02,.04,.05,.07,.07-.51,.6-1,1.23-1.54,1.79-.43,.45-.93,.83-1.41,1.23-.14,.12-.19,.23-.19,.41,.08,4.48-1.27,8.48-4.03,11.99-2.71,3.45-6.25,5.55-10.57,6.34-2.04,.37-4.09,.41-6.13,.11-2.48-.36-4.78-1.22-6.91-2.55-.02-.01-.04-.04-.09-.1Z"/></g></svg>