<?xml version="1.0" encoding="UTF-8"?>
<svg id="Ebene_2" viewBox="0 0 27.39 28.55" xmlns="http://www.w3.org/2000/svg">
  <defs>
    <style>.cls-1 {
      fill: #141322;
    }</style>
  </defs>
  <g id="Ebene_2-2">
    <g>
      <path class="cls-1"
            d="M10.61,28.55h-3.79v-3.72H0c0-.13,0-.23,0-.33,0-6.43,0-12.86,0-19.29,0-.16,.03-.33,.08-.49C.63,3.26,1.19,1.8,1.73,.33,1.83,.07,1.95,0,2.22,0,10.61,0,19,0,27.39,0V17.4c-.06,.05-.13,.1-.19,.15-2.35,2.34-4.7,4.68-7.04,7.02-.19,.19-.37,.26-.63,.25-1.66,0-3.32,0-4.99,0-.14,0-.31,.07-.41,.17-.64,.62-1.27,1.25-1.9,1.89-.55,.55-1.09,1.11-1.64,1.66ZM24.87,2.52H4.38V20.48h5.58v3.63s.08,.06,.13,.09c.05-.09,.07-.2,.14-.27,1.09-1.09,2.18-2.18,3.27-3.27,.14-.14,.27-.19,.46-.19,2.1,0,4.2,0,6.3,0,.19,0,.33-.06,.46-.19,1.32-1.32,2.64-2.64,3.97-3.96,.15-.14,.19-.29,.19-.49,0-4.33,0-8.66,0-12.99v-.33Z"/>
      <path class="cls-1"
            d="M13.67,7.44v7.44h-2.49v-.3c0-2.28,0-4.55,0-6.83,0-.26,.08-.33,.33-.32,.71,.02,1.43,0,2.17,0Z"/>
      <path class="cls-1" d="M20.51,14.89h-2.47V7.46h2.47v7.43Z"/>
    </g>
  </g>
</svg>
