<?xml version="1.0" encoding="UTF-8"?><svg id="Ebene_2" xmlns="http://www.w3.org/2000/svg" viewBox="0 0 28.88 20.32"><defs><style>.cls-1{fill:#fff;}</style></defs><g id="Ebene_2-2"><path class="cls-1" d="M28.27,3.18c-.33-1.24-1.3-2.22-2.55-2.57-2.24-.61-11.28-.61-11.28-.61,0,0-9.02,0-11.28,.61C1.91,.96,.94,1.93,.61,3.18c-.61,2.26-.61,6.99-.61,6.99,0,0,0,4.72,.61,6.99,.33,1.24,1.3,2.22,2.55,2.57,2.24,.61,11.28,.61,11.28,.61,0,0,9.02,0,11.28-.61,1.24-.35,2.22-1.32,2.55-2.57,.61-2.26,.61-6.99,.61-6.99,0,0-.02-4.72-.61-6.99ZM11.49,14.46V5.89l7.54,4.3-7.54,4.28Z"/></g></svg>