<?xml version="1.0" encoding="UTF-8"?><svg id="Ebene_2" xmlns="http://www.w3.org/2000/svg" viewBox="0 0 359.28 925.51"><defs><style>.cls-1{fill:#fff;}.cls-2{fill:#4fff9b;}.cls-3{fill:#52ff98;}</style></defs><g id="Ebene_14"><path class="cls-2" d="M356.66,221.91c-10.16,65.52-49.38,122.01-116.56,167.91C98.78,486.37,37.65,568.86,11.26,621.05c-4.55,9-8.25,17.42-11.26,25.23v-6.77c2.56-6.18,5.55-12.71,9.03-19.59,16.89-33.4,41.9-67.9,74.33-102.54,40.49-43.26,92.76-86.87,155.33-129.62,66.58-45.49,105.44-101.41,115.5-166.22,9.43-60.77-8.67-118.41-25.51-156.06-15.14-33.82-31.99-58.01-37.46-65.48h3.09c6.42,8.94,22.29,32.39,36.62,64.4,17,37.96,35.26,96.11,25.73,157.51Z"/><path id="Pfad_28" class="cls-1" d="M117.74,109.77c.64,0,1.15,.52,1.15,1.15,0,.64-.52,1.15-1.15,1.15-.63,0-1.15-.52-1.15-1.15,0-.64,.52-1.15,1.15-1.15Z"/><path id="Pfad_28-2" class="cls-1" d="M303.59,118.53c.64,0,1.15,.52,1.15,1.15,0,.64-.52,1.15-1.15,1.15-.63,0-1.15-.52-1.15-1.15,0-.64,.52-1.15,1.15-1.15Z"/><path id="Pfad_28-3" class="cls-1" d="M312.25,83.46c.64,0,1.15,.52,1.15,1.15,0,.64-.52,1.15-1.15,1.15-.63,0-1.15-.52-1.15-1.15,0-.64,.52-1.15,1.15-1.15Z"/><path id="Pfad_28-4" class="cls-1" d="M187.52,57.06c.64,0,1.15,.52,1.15,1.15,0,.64-.52,1.15-1.15,1.15-.63,0-1.15-.52-1.15-1.15,0-.64,.52-1.15,1.15-1.15Z"/><path id="Pfad_28-5" class="cls-1" d="M263.15,245.92c.64,0,1.15,.52,1.15,1.15,0,.64-.52,1.15-1.15,1.15-.63,0-1.15-.52-1.15-1.15,0-.64,.52-1.15,1.15-1.15Z"/><path id="Pfad_28-6" class="cls-2" d="M128.03,237.13c.64,0,1.15,.52,1.15,1.15,0,.64-.52,1.15-1.15,1.15-.63,0-1.15-.52-1.15-1.15,0-.64,.52-1.15,1.15-1.15Z"/><path id="Pfad_28-7" class="cls-2" d="M39.86,61.83c.64,0,1.15,.52,1.15,1.15,0,.64-.52,1.15-1.15,1.15-.63,0-1.15-.52-1.15-1.15,0-.64,.52-1.15,1.15-1.15Z"/><path id="Pfad_28-8" class="cls-1" d="M148.68,257.02c.64,0,1.15,.52,1.15,1.15,0,.64-.52,1.15-1.15,1.15-.63,0-1.15-.52-1.15-1.15,0-.64,.52-1.15,1.15-1.15Z"/><path id="Pfad_28-9" class="cls-1" d="M303.59,392.49c.64,0,1.15,.52,1.15,1.15,0,.64-.52,1.15-1.15,1.15-.63,0-1.15-.52-1.15-1.15,0-.64,.52-1.15,1.15-1.15Z"/><path id="Pfad_28-10" class="cls-2" d="M345.89,375.02c.64,0,1.15,.52,1.15,1.15,0,.64-.52,1.15-1.15,1.15-.63,0-1.15-.52-1.15-1.15,0-.64,.52-1.15,1.15-1.15Z"/><path id="Pfad_28-11" class="cls-2" d="M69.99,893.87c.64,0,1.15,.52,1.15,1.15,0,.64-.52,1.15-1.15,1.15-.63,0-1.15-.52-1.15-1.15,0-.64,.52-1.15,1.15-1.15Z"/><path id="Pfad_28-12" class="cls-1" d="M276.26,883.91c.64,0,1.15,.52,1.15,1.15,0,.64-.52,1.15-1.15,1.15-.63,0-1.15-.52-1.15-1.15,0-.64,.52-1.15,1.15-1.15Z"/><path id="Pfad_28-13" class="cls-1" d="M255.25,815.17c.64,0,1.15,.52,1.15,1.15,0,.64-.52,1.15-1.15,1.15-.63,0-1.15-.52-1.15-1.15,0-.64,.52-1.15,1.15-1.15Z"/><path id="Pfad_28-14" class="cls-2" d="M334.1,690.32c.64,0,1.15,.52,1.15,1.15,0,.64-.52,1.15-1.15,1.15-.63,0-1.15-.52-1.15-1.15,0-.64,.52-1.15,1.15-1.15Z"/><path id="Pfad_28-15" class="cls-1" d="M121.44,715.66c.64,0,1.15,.52,1.15,1.15,0,.64-.52,1.15-1.15,1.15-.63,0-1.15-.52-1.15-1.15,0-.64,.52-1.15,1.15-1.15Z"/><path id="Pfad_28-16" class="cls-1" d="M316.1,680.67c.64,0,1.15,.52,1.15,1.15,0,.64-.52,1.15-1.15,1.15-.63,0-1.15-.52-1.15-1.15,0-.64,.52-1.15,1.15-1.15Z"/><path id="Pfad_689" class="cls-1" d="M266.94,71.17l-2.11-3.1,3.11-2.11-1.36-1.99-3.11,2.11-2.11-3.1-2,1.36,2.11,3.1-3.1,2.11,1.36,1.99,3.1-2.11,2.11,3.1,2-1.36Z"/><path id="Pfad_689-2" class="cls-1" d="M105.57,925.51l.67-3.69,3.69,.68,.43-2.37-3.69-.68,.67-3.69-2.38-.44-.67,3.69-3.69-.68-.43,2.37,3.69,.68-.67,3.69,2.37,.44Z"/><path id="Pfad_690" class="cls-3" d="M182.42,109.86l-6.04-.08,.08-6.03-3.88-.05-.08,6.03-6.04-.08-.05,3.87,6.04,.08-.08,6.03,3.88,.05,.08-6.03,6.04,.08,.05-3.87Z"/></g></svg>