<?xml version="1.0" encoding="UTF-8"?><svg id="Ebene_2" xmlns="http://www.w3.org/2000/svg" viewBox="0 0 1920 1629"><defs><style>.cls-1{fill:#fff;}.cls-2{fill:#52ff98;}</style></defs><g id="Ebene_16"><g id="HG"><g id="HG-2"><g id="Gruppe_119"><path id="Pfad_827" class="cls-2" d="M1907.1,669.1c4.34-.58,8.64-1.27,12.9-2.06v21.33c-28.48,5.04-57.61,5.4-86.85-1.05-71.7-15.81-115.41-74.07-155.95-130.5l-3.75-5.22c-2.33-3.25-4.65-6.49-6.97-9.71-2.59-3.58-5.19-7.17-7.81-10.77-1.26-1.71-2.52-3.43-3.8-5.14-18.37-24.7-38.41-48.75-63.36-66.75-30.89-22.32-66.96-31.64-104.62-33.55-73.12-3.71-149.88,14.55-220.09-13.6-84.99-34.08-130.83-119.7-156.59-202.71-14.17-45.66-24.71-92.48-36.32-138.84-5.88-23.51-11.76-47.02-17.65-70.53h21.65l25.27,101.02c11.38,45.52,21.95,91.52,38.41,135.55,16.1,43.09,38.95,84.26,72.4,116.32,30.96,29.68,69.19,47.32,111.7,52.17,74.23,8.47,151.13-12.94,223.85,9.84,56.19,17.62,93.52,60.3,127.21,105.79,1.26,1.71,2.52,3.42,3.78,5.15,5.24,7.16,10.4,14.36,15.54,21.52,1.27,1.77,2.54,3.53,3.8,5.29,3.98,5.53,7.97,11.01,11.96,16.44,22.49,30.45,47.64,60.67,80.71,80.01,34.62,20.24,75.24,25.23,114.58,20h0Z"/><path id="Pfad_828" class="cls-1" d="M494.55,0c-31.82,10.2-63.1,22.01-93.72,35.39l.1-.18c-47.95,20.98-94.74,44.51-140.18,70.48C188.12,147.08,89.86,211.23,0,297.01v-8.34c30.88-29.12,63.28-56.58,97.07-82.27,51.2-38.86,104.92-74.27,160.82-105.99C355.38,44.86,429.25,17,429.98,16.73l.03,.08c15.14-5.98,30.43-11.58,45.88-16.81h18.66Z"/><path id="Pfad_829" class="cls-1" d="M1846.85,552.2c26.7,8.19,51.03,20.98,73.15,36.97v7.38c-9.38-7.03-19.21-13.42-29.44-19.14-34.46-19.22-72.88-28.82-112.19-30.27-26.49-.97-52.62,1.29-78.52,5.51-7.56,1.23-15.11,2.62-22.65,4.17-5.55,1.13-11.09,2.33-16.63,3.6-7.29,1.67-14.57,3.43-21.84,5.29-96.79,24.61-191.9,62.72-292.74,45.52-74.51-12.71-132.16-60.91-171.73-123.61-41.25-65.35-61.99-139.91-86.37-212.5-25.01-74.45-55.93-148.41-114.4-203.07-33.45-31.27-72.96-55.12-115.35-72.05h15.4c48.73,21.46,93.28,52.28,128.21,92.79,50.47,58.51,76.3,132.56,99.91,204.89,24.95,76.48,49.58,155.41,100.66,219.17,24.64,30.77,55.24,56.79,91.54,72.72,35.43,15.56,74.38,20.7,112.83,19.52,77.7-2.38,151.25-28.86,225.82-47.93,.81-.21,1.62-.42,2.43-.62,7.23-1.85,14.52-3.62,21.86-5.3,5.52-1.27,11.07-2.48,16.65-3.64,7.5-1.54,15.03-2.97,22.6-4.24,50.26-8.49,101.68-10.2,150.8,4.84h0Z"/></g></g></g><g id="HG-3"><g id="Gruppe_45"><path id="Pfad_23" class="cls-2" d="M1274.99,1239.17c0,1.7,1.38,3.08,3.08,3.08,1.7,0,3.08-1.38,3.08-3.08,0-1.7-1.38-3.08-3.08-3.08h0c-1.7,0-3.08,1.38-3.08,3.08Z"/><path id="Pfad_23-2" class="cls-2" d="M1775.99,815.17c0,1.7,1.38,3.08,3.08,3.08,1.7,0,3.08-1.38,3.08-3.08,0-1.7-1.38-3.08-3.08-3.08h0c-1.7,0-3.08,1.38-3.08,3.08Z"/><path id="Pfad_23-3" class="cls-2" d="M1239.99,515.17c0,1.7,1.38,3.08,3.08,3.08,1.7,0,3.08-1.38,3.08-3.08,0-1.7-1.38-3.08-3.08-3.08h0c-1.7,0-3.08,1.38-3.08,3.08Z"/><path id="Pfad_24" class="cls-2" d="M1121.48,1625.92c0,1.7,1.38,3.08,3.08,3.08s3.08-1.38,3.08-3.08-1.38-3.08-3.08-3.08h0c-1.7,0-3.08,1.38-3.08,3.08Z"/><circle id="Ellipse_1" class="cls-2" cx="1634.14" cy="1450.12" r="3.08"/><circle id="Ellipse_2" class="cls-2" cx="147.93" cy="1585.35" r="3.08"/><path id="Pfad_26" class="cls-2" d="M442.05,896.37c0,1.7,1.38,3.08,3.08,3.08s3.08-1.38,3.08-3.08-1.38-3.08-3.08-3.08h0c-1.7,0-3.08,1.38-3.08,3.08Z"/><path id="Pfad_27" class="cls-1" d="M581.39,1451.14c0,1.7,1.38,3.08,3.08,3.08,1.7,0,3.08-1.38,3.08-3.08s-1.38-3.08-3.08-3.08h0c-1.7,0-3.08,1.38-3.08,3.08Z"/><path id="Pfad_28" class="cls-1" d="M442.05,1262.28c0,1.7,1.38,3.08,3.08,3.08,1.7,0,3.08-1.38,3.08-3.08s-1.38-3.08-3.08-3.08h0c-1.7,0-3.08,1.38-3.08,3.08Z"/><path id="Pfad_28-2" class="cls-1" d="M962.06,1499.28c0,1.7,1.38,3.08,3.08,3.08,1.7,0,3.08-1.38,3.08-3.08s-1.38-3.08-3.08-3.08h0c-1.7,0-3.08,1.38-3.08,3.08Z"/><path id="Pfad_29" class="cls-1" d="M1303.33,973.11c1.7,0,3.07-1.38,3.07-3.08,0-1.7-1.38-3.07-3.08-3.07s-3.07,1.38-3.07,3.08c0,1.69,1.38,3.07,3.07,3.07h.01Z"/><path id="Pfad_29-2" class="cls-1" d="M1178.33,462.11c1.7,0,3.07-1.38,3.07-3.08,0-1.7-1.38-3.07-3.08-3.07s-3.07,1.38-3.07,3.08c0,1.69,1.38,3.07,3.07,3.07h.01Z"/><path id="Pfad_29-3" class="cls-1" d="M1637.33,207.11c1.7,0,3.07-1.38,3.07-3.08,0-1.7-1.38-3.07-3.08-3.07s-3.07,1.38-3.07,3.08c0,1.69,1.38,3.07,3.07,3.07h.01Z"/><path id="Pfad_30" class="cls-1" d="M191.56,651.36c0,1.7,1.38,3.07,3.08,3.07,1.7,0,3.07-1.38,3.07-3.08,0-1.69-1.38-3.07-3.07-3.07-1.7,0-3.08,1.38-3.08,3.08Z"/><path id="Pfad_30-2" class="cls-1" d="M653.56,129.36c0,1.7,1.38,3.07,3.08,3.07,1.7,0,3.07-1.38,3.07-3.08,0-1.69-1.38-3.07-3.07-3.07-1.7,0-3.08,1.38-3.08,3.08Z"/><path id="Pfad_31" class="cls-1" d="M865.57,880.84c0,1.7,1.38,3.08,3.08,3.08s3.08-1.38,3.08-3.08c0-1.7-1.38-3.08-3.08-3.08h0c-1.7,0-3.08,1.38-3.08,3.08Z"/><path id="Pfad_32" class="cls-1" d="M1587.3,1421.12c0,1.7,1.38,3.08,3.08,3.08,1.7,0,3.08-1.38,3.08-3.08s-1.38-3.08-3.08-3.08h0c-1.7,0-3.08,1.38-3.08,3.08Z"/></g></g><g id="HG-4"><path id="Pfad_691" class="cls-1" d="M1381.7,1407.42l-9.28-14.29,14.29-9.28-5.97-9.19-14.29,9.28-9.28-14.29-9.19,5.97,9.28,14.29-14.29,9.28,5.97,9.19,14.29-9.28,9.28,14.29,9.19-5.97Z"/></g><g id="HG-5"><path id="Pfad_690" class="cls-2" d="M843.69,621.83l-8.61,5.38-5.37-8.61-5.54,3.46,5.38,8.61-8.61,5.37,3.45,5.53,8.61-5.38,5.38,8.61,5.53-3.46-5.38-8.61,8.61-5.38-3.45-5.53h0Z"/></g></g></svg>