<?xml version="1.0" encoding="UTF-8"?><svg id="Ebene_2" xmlns="http://www.w3.org/2000/svg" viewBox="0 0 1142.22 333.4"><defs><style>.cls-1{fill:#fff;}.cls-2{fill:none;stroke:#fff;stroke-miterlimit:10;stroke-width:5px;}</style></defs><g id="beyond"><g><g><path class="cls-2" d="m107.1,85c4.93,6.33,7.4,13.57,7.4,21.7,0,11.73-4.1,21.03-12.3,27.9-8.2,6.87-19.63,10.3-34.3,10.3H2.5V4.5h63.2c14.27,0,25.43,3.27,33.5,9.8,8.06,6.53,12.1,15.4,12.1,26.6,0,8.27-2.17,15.13-6.5,20.6s-10.1,9.27-17.3,11.4c8.13,1.73,14.67,5.77,19.6,12.1h0Zm-70.4-23.7h22.4c5.6,0,9.9-1.23,12.9-3.7s4.5-6.1,4.5-10.9-1.5-8.47-4.5-11-7.3-3.8-12.9-3.8h-22.4v29.4Zm38.5,52.1c3.13-2.6,4.7-6.37,4.7-11.3s-1.63-8.8-4.9-11.6c-3.27-2.8-7.77-4.2-13.5-4.2h-24.8v31h25.2c5.73,0,10.17-1.3,13.3-3.9h0Z"/><path class="cls-2" d="m172.5,31.9v28.4h45.8v26.4h-45.8v30.8h51.8v27.4h-86V4.5h86v27.4h-51.8Z"/><path class="cls-2" d="m370.9,4.5l-48.6,94v46.4h-34.2v-46.4L239.5,4.5h38.8l27.2,58.8,27-58.8h38.4,0Z"/><path class="cls-2" d="m418.8,137.1c-11-6.13-19.73-14.7-26.2-25.7-6.47-11-9.7-23.37-9.7-37.1s3.23-26.07,9.7-37c6.47-10.93,15.2-19.47,26.2-25.6s23.1-9.2,36.3-9.2,25.3,3.07,36.3,9.2,19.67,14.67,26,25.6,9.5,23.27,9.5,37-3.2,26.1-9.6,37.1-15.07,19.57-26,25.7c-10.93,6.13-23,9.2-36.2,9.2s-25.3-3.07-36.3-9.2h0Zm63.2-33.2c6.73-7.47,10.1-17.33,10.1-29.6s-3.37-22.3-10.1-29.7c-6.73-7.4-15.7-11.1-26.9-11.1s-20.37,3.67-27.1,11-10.1,17.27-10.1,29.8,3.37,22.3,10.1,29.7c6.73,7.4,15.77,11.1,27.1,11.1s20.17-3.73,26.9-11.2h0Z"/><path class="cls-2" d="m675.5,144.9h-34.2l-57.2-86.6v86.6h-34.2V4.5h34.2l57.2,87V4.5h34.2v140.4Z"/><path class="cls-2" d="m795.7,13.3c11.07,5.87,19.63,14.1,25.7,24.7s9.1,22.83,9.1,36.7-3.04,25.93-9.1,36.6c-6.07,10.67-14.67,18.93-25.8,24.8s-24.04,8.8-38.7,8.8h-52.6V4.5h52.6c14.8,0,27.73,2.93,38.8,8.8Zm-10.8,91.4c7.2-7.07,10.8-17.07,10.8-30s-3.6-23-10.8-30.2c-7.2-7.2-17.27-10.8-30.2-10.8h-16.2v81.6h16.2c12.93,0,23-3.53,30.2-10.6Z"/></g><g><path class="cls-1" d="m111.1,191.6v27.4h-37.2v113h-34.2v-113H2.5v-27.4h108.6Z"/><path class="cls-1" d="m253.9,191.6v140.4h-34.2v-57.8h-53.2v57.8h-34.2v-140.4h34.2v55h53.2v-55h34.2Z"/><path class="cls-1" d="m316.7,219v28.4h45.8v26.4h-45.8v30.8h51.8v27.4h-86v-140.4h86v27.4h-51.8Z"/><path class="cls-1" d="m475.29,305.6h44.8v26.4h-79v-140.4h34.2v114h0Z"/><path class="cls-1" d="m574.69,191.6v140.4h-34.2v-140.4h34.2Z"/><path class="cls-1" d="m762.49,191.6v140.4h-34.2v-84.2l-31.4,84.2h-27.6l-31.6-84.4v84.4h-34.2v-140.4h40.4l39.4,97.2,39-97.2h40.2Z"/><path class="cls-1" d="m825.29,191.6v140.4h-34.2v-140.4h34.2Z"/><path class="cls-1" d="m955.09,191.6v27.4h-37.2v113h-34.2v-113h-37.2v-27.4h108.6,0Z"/><path class="cls-1" d="m999.49,328.4c-8.13-3.33-14.63-8.27-19.5-14.8-4.87-6.53-7.43-14.4-7.7-23.6h36.4c.53,5.2,2.33,9.17,5.4,11.9,3.07,2.73,7.07,4.1,12,4.1s9.07-1.17,12-3.5,4.4-5.57,4.4-9.7c0-3.47-1.17-6.33-3.5-8.6-2.33-2.27-5.2-4.13-8.6-5.6-3.4-1.46-8.23-3.13-14.5-5-9.07-2.8-16.47-5.6-22.2-8.4-5.73-2.8-10.67-6.93-14.8-12.4-4.13-5.47-6.2-12.6-6.2-21.4,0-13.07,4.73-23.3,14.2-30.7,9.46-7.4,21.8-11.1,37-11.1s27.93,3.7,37.4,11.1c9.46,7.4,14.53,17.7,15.2,30.9h-37c-.27-4.53-1.93-8.1-5-10.7-3.07-2.6-7-3.9-11.8-3.9-4.13,0-7.47,1.1-10,3.3s-3.8,5.37-3.8,9.5c0,4.53,2.13,8.07,6.4,10.6,4.27,2.53,10.93,5.27,20,8.2,9.06,3.07,16.43,6,22.1,8.8,5.67,2.8,10.56,6.87,14.7,12.2,4.13,5.33,6.2,12.2,6.2,20.6s-2.04,15.27-6.1,21.8c-4.07,6.53-9.97,11.73-17.7,15.6s-16.87,5.8-27.4,5.8-19.47-1.67-27.6-5h0Z"/></g></g><polygon class="cls-1" points="1142.22 190.04 1127.18 190.04 1127.18 175 1117.51 175 1117.51 190.04 1102.47 190.04 1102.47 199.71 1117.51 199.71 1117.51 214.76 1127.18 214.76 1127.18 199.71 1142.22 199.71 1142.22 190.04"/></g></svg>