<?xml version="1.0" encoding="UTF-8"?>
<svg id="Ebene_2" data-name="Ebene 2" xmlns="http://www.w3.org/2000/svg" viewBox="0 0 1095.5 72.52">
  <defs>
    <style>
      .cls-1 {
        fill: #fff;
      }
    </style>
  </defs>
  <g id="Ebene_6" data-name="Ebene 6">
    <path class="cls-1" d="M48.49,.13V48.82c0,7.54-2.12,13.34-6.37,17.42-4.24,4.07-9.97,6.11-17.16,6.11s-13.58-2.14-18.13-6.41C2.27,61.65,0,55.58,0,47.7H17.32c0,2.99,.61,5.25,1.83,6.78,1.22,1.53,2.99,2.29,5.3,2.29,2.1,0,3.73-.68,4.89-2.04,1.15-1.36,1.73-3.33,1.73-5.91V.13h17.42Z"/>
    <path class="cls-1" d="M113.36,41.54c2.54,3.26,3.81,6.98,3.81,11.16,0,6.04-2.11,10.82-6.33,14.35-4.22,3.53-10.1,5.3-17.64,5.3H59.55V.13h32.51c7.34,0,13.08,1.68,17.23,5.04,4.15,3.36,6.22,7.93,6.22,13.68,0,4.26-1.11,7.78-3.34,10.6-2.23,2.81-5.19,4.77-8.9,5.86,4.18,.89,7.54,2.97,10.08,6.23Zm-36.22-12.19h11.52c2.88,0,5.09-.63,6.64-1.9,1.54-1.27,2.31-3.14,2.31-5.61s-.77-4.36-2.31-5.66c-1.54-1.3-3.76-1.96-6.64-1.96h-11.52v15.12Zm19.8,26.8c1.61-1.34,2.42-3.28,2.42-5.81s-.84-4.53-2.52-5.97c-1.68-1.44-4-2.16-6.94-2.16h-12.76v15.95h12.96c2.95,0,5.23-.67,6.84-2.01Z"/>
    <path class="cls-1" d="M207.19,.13V72.35h-17.59V29.04l-16.15,43.31h-14.2l-16.25-43.42v43.42h-17.59V.13h20.78l20.27,50L186.52,.13h20.68Z"/>
    <path class="cls-1" d="M262.32,3c7.74,0,14.37,2.04,19.89,6.13,5.51,4.09,9.2,9.66,11.06,16.73h-17.47c-1.3-2.73-3.14-4.8-5.53-6.22-2.38-1.43-5.1-2.14-8.13-2.14-4.89,0-8.86,1.7-11.89,5.11-3.03,3.41-4.55,7.96-4.55,13.66s1.52,10.25,4.55,13.66c3.03,3.41,7,5.11,11.89,5.11,3.03,0,5.75-.71,8.13-2.14,2.38-1.42,4.23-3.5,5.53-6.22h17.47c-1.86,7.06-5.54,12.62-11.06,16.68-5.52,4.06-12.14,6.09-19.89,6.09-6.32,0-11.97-1.41-16.96-4.23-4.99-2.82-8.87-6.74-11.66-11.75-2.79-5.02-4.18-10.75-4.18-17.19s1.39-12.19,4.18-17.24c2.79-5.05,6.67-8.98,11.66-11.8,4.99-2.82,10.64-4.23,16.96-4.23m0-3c-6.81,0-13.01,1.55-18.43,4.62-5.46,3.09-9.77,7.45-12.81,12.96-3.02,5.47-4.55,11.76-4.55,18.69s1.53,13.2,4.56,18.65c3.05,5.49,7.36,9.83,12.81,12.91,5.42,3.06,11.62,4.62,18.43,4.62,8.36,0,15.65-2.24,21.66-6.67,6.05-4.45,10.15-10.62,12.18-18.33l.99-3.76h-23.25l-.81,1.71c-1.05,2.2-2.47,3.82-4.36,4.94-1.93,1.15-4.08,1.71-6.59,1.71-4.04,0-7.19-1.34-9.65-4.11-2.55-2.86-3.79-6.68-3.79-11.66s1.24-8.8,3.79-11.66c2.46-2.76,5.62-4.11,9.65-4.11,2.51,0,4.66,.56,6.59,1.71,1.89,1.13,3.31,2.74,4.36,4.94l.81,1.71h23.25l-.99-3.76c-2.03-7.71-6.12-13.89-12.17-18.37-6.02-4.46-13.31-6.72-21.67-6.72h0Z"/>
    <path class="cls-1" d="M322.76,16.1v10.13c1.86-2.85,4.18-5.09,6.97-6.74,2.79-1.64,5.89-2.46,9.29-2.46v16.82h-4.37c-3.96,0-6.94,.85-8.92,2.56-1.99,1.71-2.97,4.69-2.97,8.97v24.06h-15.89V16.1h15.89m3-3h-21.89v59.33h21.89v-27.06c0-2.3,.33-5.32,1.93-6.69,1.41-1.21,3.76-1.83,6.96-1.83h7.37V14.03h-3c-3.93,0-7.57,.97-10.81,2.88-.85,.5-1.67,1.06-2.45,1.66v-5.46h0Z"/>
    <path class="cls-1" d="M377.55,16.1c5.02,0,9.48,1.05,13.38,3.16,3.9,2.11,6.95,5.11,9.15,9.01,2.2,3.9,3.3,8.46,3.3,13.66,0,1.49-.09,3.04-.28,4.65h-35.96c.25,3.22,1.28,5.68,3.11,7.39,1.83,1.7,4.07,2.56,6.74,2.56,3.96,0,6.72-1.67,8.27-5.02h16.91c-.87,3.41-2.43,6.48-4.69,9.2-2.26,2.73-5.1,4.86-8.5,6.41-3.41,1.55-7.22,2.32-11.43,2.32-5.08,0-9.6-1.08-13.57-3.25-3.97-2.17-7.06-5.26-9.29-9.29-2.23-4.03-3.35-8.73-3.35-14.12s1.1-10.1,3.3-14.12c2.2-4.03,5.28-7.12,9.24-9.29,3.96-2.17,8.52-3.25,13.66-3.25m-10.31,21.65h19.88c0-2.72-.93-4.89-2.79-6.5-1.86-1.61-4.18-2.41-6.97-2.41s-4.91,.77-6.74,2.32c-1.83,1.55-2.96,3.75-3.39,6.59m10.31-24.65c-5.63,0-10.71,1.22-15.1,3.62-4.46,2.44-7.97,5.96-10.44,10.49-2.43,4.45-3.67,9.69-3.67,15.56s1.25,11.12,3.72,15.58c2.5,4.51,6.02,8.04,10.48,10.47,4.38,2.4,9.43,3.62,15,3.62,4.63,0,8.89-.87,12.67-2.59,3.8-1.72,7.02-4.16,9.57-7.22,2.53-3.06,4.31-6.55,5.29-10.38l.68-2.67h.01v-.1s.26-.98,.26-.98h-.14l.18-1.58c.2-1.7,.3-3.38,.3-4.99,0-5.7-1.24-10.79-3.68-15.13-2.47-4.39-5.95-7.81-10.34-10.18-4.33-2.33-9.31-3.52-14.8-3.52h0Zm-6.13,21.65c.32-.5,.71-.93,1.15-1.31,1.28-1.08,2.85-1.61,4.8-1.61,2.06,0,3.7,.55,5.01,1.68,.43,.37,.77,.78,1.04,1.24h-11.99Zm-.59,14.83h12.02l-.31,.67c-1.05,2.27-2.76,3.28-5.55,3.28-1.89,0-3.43-.57-4.69-1.75-.63-.58-1.12-1.31-1.48-2.2h0Z"/>
    <path class="cls-1" d="M470.17,16.1v53.33h-15.89v-8.08c-1.55,2.41-3.7,4.37-6.46,5.85-2.76,1.48-5.96,2.23-9.62,2.23-4.21,0-8.05-1.1-11.52-3.3-3.47-2.2-6.21-5.32-8.22-9.38-2.01-4.06-3.02-8.75-3.02-14.08s1.01-10,3.02-14.03c2.01-4.03,4.75-7.12,8.22-9.29,3.47-2.17,7.34-3.25,11.61-3.25,3.65,0,6.86,.74,9.62,2.23,2.75,1.49,4.88,3.44,6.36,5.85v-8.08h15.89m-27.22,39.49c3.16,0,5.84-1.15,8.04-3.44,2.2-2.29,3.3-5.42,3.3-9.38s-1.1-7.09-3.3-9.39c-2.2-2.29-4.88-3.44-8.04-3.44s-5.84,1.13-8.04,3.39c-2.2,2.26-3.3,5.38-3.3,9.34s1.1,7.11,3.3,9.43c2.2,2.32,4.88,3.48,8.04,3.48m30.22-42.49h-21.89v3.76c-.61-.42-1.26-.81-1.94-1.18-3.18-1.72-6.9-2.59-11.04-2.59-4.83,0-9.27,1.25-13.21,3.71-3.93,2.45-7.06,5.99-9.32,10.49-2.21,4.42-3.34,9.59-3.34,15.37s1.12,10.96,3.33,15.41c2.25,4.54,5.38,8.1,9.31,10.58,3.94,2.5,8.35,3.76,13.13,3.76,4.14,0,7.85-.87,11.04-2.59,.71-.38,1.39-.8,2.03-1.24v3.83h21.89V13.1h0Zm-30.22,39.49c-2.32,0-4.24-.83-5.86-2.55-1.67-1.76-2.48-4.17-2.48-7.37s.8-5.55,2.45-7.25c1.62-1.67,3.55-2.48,5.89-2.48s4.25,.82,5.87,2.51c1.66,1.73,2.46,4.12,2.46,7.31s-.81,5.58-2.46,7.31c-1.62,1.69-3.55,2.52-5.87,2.52h0Z"/>
    <path class="cls-1" d="M505.52,3.27v12.96h10.68v13.54h-10.68v21.36c0,1.59,.38,2.73,1.14,3.43,.76,.7,2.03,1.05,3.81,1.05h5.82v13.82h-8.3c-5.91,0-10.52-1.45-13.82-4.34-3.31-2.89-4.96-7.61-4.96-14.16V29.77h-6.48v-13.54h6.48V3.27h16.3m3.08-3.08h-22.46V13.15h-6.48v19.7h6.48v18.09c0,7.44,2.02,12.99,6.01,16.47,3.86,3.38,9.2,5.1,15.85,5.1h11.37v-19.98h-8.9c-1.12,0-1.58-.17-1.72-.24-.06-.13-.16-.49-.16-1.17v-18.28h10.68V13.15h-10.68V.19h0Z"/>
    <path class="cls-1" d="M555.91,16.1c5.08,0,9.66,1.08,13.75,3.25,4.09,2.17,7.31,5.28,9.66,9.34,2.36,4.06,3.53,8.75,3.53,14.08s-1.19,10.02-3.58,14.08c-2.39,4.06-5.64,7.17-9.76,9.34-4.12,2.17-8.72,3.25-13.8,3.25s-9.65-1.08-13.71-3.25c-4.06-2.17-7.25-5.26-9.57-9.29-2.32-4.03-3.48-8.73-3.48-14.12s1.18-10.02,3.53-14.08c2.35-4.05,5.57-7.17,9.66-9.34,4.09-2.17,8.67-3.25,13.75-3.25m-.19,39.58c3.03,0,5.62-1.11,7.76-3.34,2.14-2.23,3.21-5.42,3.21-9.57s-1.04-7.34-3.11-9.57-4.63-3.35-7.67-3.35-5.67,1.1-7.71,3.3c-2.04,2.2-3.07,5.4-3.07,9.62s1.01,7.34,3.02,9.57c2.01,2.23,4.54,3.34,7.57,3.34m.19-42.58c-5.55,0-10.65,1.21-15.16,3.6-4.57,2.42-8.22,5.95-10.85,10.48-2.61,4.5-3.94,9.74-3.94,15.58s1.31,11.15,3.89,15.62c2.59,4.5,6.21,8.01,10.76,10.44,4.47,2.39,9.56,3.61,15.12,3.61s10.66-1.21,15.2-3.6c4.6-2.42,8.28-5.94,10.94-10.47,2.65-4.51,3.99-9.75,3.99-15.6s-1.32-11.08-3.94-15.58c-2.63-4.53-6.28-8.06-10.85-10.48-4.5-2.39-9.6-3.6-15.16-3.6h0Zm-.19,39.58c-2.2,0-3.9-.75-5.35-2.35-1.49-1.65-2.25-4.2-2.25-7.56s.76-5.96,2.26-7.58c1.49-1.6,3.24-2.34,5.51-2.34s3.95,.76,5.47,2.39c1.53,1.64,2.31,4.18,2.31,7.53s-.8,5.85-2.37,7.5c-1.56,1.63-3.39,2.42-5.59,2.42h0Z"/>
    <path class="cls-1" d="M611.06,16.1v10.13c1.86-2.85,4.18-5.09,6.97-6.74,2.79-1.64,5.89-2.46,9.29-2.46v16.82h-4.37c-3.96,0-6.94,.85-8.92,2.56-1.98,1.71-2.97,4.69-2.97,8.97v24.06h-15.89V16.1h15.89m3-3h-21.89v59.33h21.89v-27.06c0-2.3,.33-5.32,1.93-6.69,1.41-1.21,3.76-1.83,6.96-1.83h7.37V14.03h-3c-3.93,0-7.57,.97-10.81,2.88-.85,.5-1.67,1.06-2.45,1.66v-5.46h0Z"/>
    <path class="cls-1" d="M714.47,3.35V69.44h-16.1l-26.92-40.76v40.76h-16.1V3.35h16.1l26.92,40.95V3.35h16.1m3.04-3.04h-22.18V34.15L673.99,1.68l-.9-1.37h-20.78V72.48h22.18V38.79l21.35,32.32,.9,1.36h20.77V.31h0Z"/>
    <path class="cls-1" d="M755.13,16.1c5.02,0,9.48,1.05,13.38,3.16,3.9,2.11,6.95,5.11,9.15,9.01s3.3,8.46,3.3,13.66c0,1.49-.09,3.04-.28,4.65h-35.96c.25,3.22,1.28,5.68,3.11,7.39,1.83,1.7,4.07,2.56,6.74,2.56,3.96,0,6.72-1.67,8.27-5.02h16.91c-.87,3.41-2.43,6.48-4.69,9.2-2.26,2.73-5.1,4.86-8.5,6.41-3.41,1.55-7.22,2.32-11.43,2.32-5.08,0-9.6-1.08-13.56-3.25-3.97-2.17-7.06-5.26-9.29-9.29-2.23-4.03-3.35-8.73-3.35-14.12s1.1-10.1,3.3-14.12c2.2-4.03,5.28-7.12,9.24-9.29,3.96-2.17,8.52-3.25,13.66-3.25m-10.31,21.65h19.88c0-2.72-.93-4.89-2.79-6.5-1.86-1.61-4.18-2.41-6.97-2.41s-4.91,.77-6.74,2.32c-1.83,1.55-2.96,3.75-3.39,6.59m10.31-24.65c-5.63,0-10.71,1.22-15.1,3.62-4.46,2.44-7.97,5.97-10.44,10.49-2.43,4.45-3.67,9.69-3.67,15.56s1.25,11.12,3.72,15.58c2.5,4.51,6.02,8.04,10.48,10.47,4.38,2.4,9.43,3.62,15,3.62,4.63,0,8.89-.87,12.67-2.59,3.8-1.73,7.02-4.16,9.57-7.22,2.54-3.06,4.32-6.55,5.29-10.38l.68-2.67h.01v-.11s.26-.97,.26-.97h-.13l.18-1.58c.2-1.71,.3-3.39,.3-4.99,0-5.7-1.24-10.79-3.69-15.13-2.47-4.39-5.95-7.81-10.34-10.18-4.33-2.33-9.31-3.52-14.81-3.52h0Zm-6.13,21.65c.32-.5,.71-.93,1.15-1.31,1.28-1.08,2.85-1.61,4.8-1.61,2.06,0,3.7,.55,5.01,1.68,.43,.37,.77,.78,1.04,1.24h-11.99Zm-.59,14.83h12.02l-.31,.66c-1.05,2.27-2.76,3.28-5.55,3.28-1.89,0-3.43-.57-4.69-1.75-.63-.58-1.12-1.31-1.48-2.2h0Z"/>
    <path class="cls-1" d="M815.2,3.16v12.99h10.7v13.56h-10.7v21.39c0,1.59,.38,2.74,1.15,3.44,.76,.7,2.04,1.05,3.82,1.05h5.83v13.85h-8.31c-5.92,0-10.54-1.45-13.85-4.35-3.31-2.9-4.97-7.62-4.97-14.18V29.71h-6.49v-13.56h6.49V3.16h16.33m3.08-3.08h-22.5V13.06h-6.49v19.73h6.49v18.12c0,7.46,2.02,13.01,6.02,16.5,3.87,3.39,9.21,5.11,15.88,5.11h11.39v-20.02h-8.91c-1.12,0-1.59-.18-1.72-.24-.06-.13-.16-.49-.16-1.17v-18.31h10.7V13.06h-10.7V.07h0Z"/>
    <path class="cls-1" d="M919.19,16.1l-14.03,53.33h-17.56l-8.18-33.64-8.46,33.64h-17.47l-14.12-53.33h15.89l7.34,38.56,8.73-38.56h16.82l8.83,38.38,7.25-38.38h14.96m3.89-3h-21.34l-.46,2.44-4.59,24.29-5.61-24.41-.54-2.33h-21.6l-.53,2.34-5.55,24.52-4.65-24.42-.46-2.44h-22.27l1,3.77,14.12,53.33,.59,2.23h22.12l.57-2.27,5.5-21.87,5.31,21.84,.56,2.29h22.23l.59-2.24,14.03-53.33,.99-3.76h0Z"/>
    <path class="cls-1" d="M955.87,16.1c5.08,0,9.67,1.08,13.75,3.25,4.09,2.17,7.31,5.28,9.66,9.34,2.35,4.06,3.53,8.75,3.53,14.08s-1.19,10.02-3.58,14.08c-2.39,4.06-5.64,7.17-9.76,9.34-4.12,2.17-8.72,3.25-13.8,3.25s-9.65-1.08-13.71-3.25c-4.06-2.17-7.25-5.26-9.57-9.29-2.32-4.03-3.48-8.73-3.48-14.12s1.18-10.02,3.53-14.08c2.35-4.05,5.57-7.17,9.66-9.34,4.09-2.17,8.67-3.25,13.75-3.25m-.19,39.58c3.03,0,5.62-1.11,7.76-3.34,2.14-2.23,3.2-5.42,3.2-9.57s-1.04-7.34-3.11-9.57-4.63-3.35-7.67-3.35-5.67,1.1-7.71,3.3c-2.05,2.2-3.07,5.4-3.07,9.62s1.01,7.34,3.02,9.57c2.01,2.23,4.54,3.34,7.57,3.34m.19-42.58c-5.55,0-10.65,1.21-15.16,3.6-4.57,2.42-8.22,5.95-10.85,10.48-2.61,4.5-3.94,9.74-3.94,15.59s1.31,11.15,3.89,15.62c2.59,4.5,6.21,8.01,10.76,10.44,4.47,2.39,9.56,3.61,15.12,3.61s10.66-1.21,15.2-3.6c4.6-2.42,8.28-5.94,10.94-10.47,2.65-4.5,3.99-9.75,3.99-15.6s-1.32-11.08-3.93-15.58c-2.63-4.53-6.28-8.06-10.85-10.48-4.5-2.39-9.6-3.6-15.16-3.6h0Zm-.19,39.58c-2.2,0-3.9-.75-5.34-2.35-1.49-1.65-2.25-4.2-2.25-7.56s.76-5.96,2.26-7.58c1.49-1.6,3.24-2.34,5.51-2.34s3.95,.76,5.47,2.39c1.53,1.64,2.31,4.18,2.31,7.53s-.8,5.85-2.37,7.5c-1.56,1.63-3.39,2.42-5.59,2.42h0Z"/>
    <path class="cls-1" d="M1011.02,16.1v10.13c1.86-2.85,4.18-5.09,6.97-6.74,2.79-1.64,5.89-2.46,9.29-2.46v16.82h-4.37c-3.96,0-6.94,.85-8.92,2.56-1.99,1.71-2.97,4.69-2.97,8.97v24.06h-15.89V16.1h15.89m3-3h-21.89v59.33h21.89v-27.06c0-2.3,.33-5.32,1.93-6.69,1.41-1.21,3.76-1.83,6.96-1.83h7.37V14.03h-3c-3.93,0-7.57,.97-10.81,2.88-.85,.5-1.67,1.06-2.45,1.66v-5.46h0Z"/>
    <path class="cls-1" d="M1055.07,3.16V39.79l16.14-23.69h17.19l-20.07,28.43,20.96,24.9h-18.99l-15.23-20.96v20.96h-15.32V3.16h15.32m2.89-2.89h-21.1V72.33h21.1v-14.95l9.99,13.76,.87,1.19h26.67l-4-4.75-19.52-23.19,18.78-26.61,3.22-4.56h-24.3l-.86,1.26-10.86,15.94V.26h0Z"/>
  </g>
</svg>