<?xml version="1.0" encoding="UTF-8"?>
<svg id="Ebene_2" data-name="Ebene 2" xmlns="http://www.w3.org/2000/svg" viewBox="0 0 201.14 13.31">
  <defs>
    <style>
      .cls-1 {
        fill: #fff;
      }
    </style>
  </defs>
  <g id="Ebene_6" data-name="Ebene 6">
    <g>
      <path class="cls-1" d="M8.9,.02V8.96c0,1.38-.39,2.45-1.17,3.2-.78,.75-1.83,1.12-3.15,1.12s-2.49-.39-3.33-1.18c-.84-.79-1.25-1.9-1.25-3.35H3.18c0,.55,.11,.96,.34,1.24,.22,.28,.55,.42,.97,.42,.39,0,.69-.12,.9-.37,.21-.25,.32-.61,.32-1.08V.02h3.2Z"/>
      <path class="cls-1" d="M20.81,7.63c.47,.6,.7,1.28,.7,2.05,0,1.11-.39,1.99-1.16,2.63-.77,.65-1.85,.97-3.24,.97h-6.18V.02h5.97c1.35,0,2.4,.31,3.16,.93,.76,.62,1.14,1.46,1.14,2.51,0,.78-.2,1.43-.61,1.95-.41,.52-.95,.88-1.63,1.08,.77,.16,1.39,.55,1.85,1.14Zm-6.65-2.24h2.12c.53,0,.93-.12,1.22-.35s.43-.58,.43-1.03-.14-.8-.43-1.04-.69-.36-1.22-.36h-2.12v2.78Zm3.64,4.92c.3-.25,.44-.6,.44-1.07s-.15-.83-.46-1.1c-.31-.26-.73-.4-1.28-.4h-2.34v2.93h2.38c.54,0,.96-.12,1.26-.37Z"/>
      <path class="cls-1" d="M38.04,.02V13.28h-3.23V5.33l-2.97,7.95h-2.61l-2.98-7.97v7.97h-3.23V.02h3.82l3.72,9.18L34.25,.02h3.8Z"/>
      <path class="cls-1" d="M48.16,.55c1.42,0,2.64,.38,3.65,1.13,1.01,.75,1.69,1.77,2.03,3.07h-3.21c-.24-.5-.58-.88-1.01-1.14-.44-.26-.94-.39-1.49-.39-.9,0-1.63,.31-2.18,.94-.56,.63-.84,1.46-.84,2.51s.28,1.88,.84,2.51c.56,.63,1.29,.94,2.18,.94,.56,0,1.05-.13,1.49-.39,.44-.26,.78-.64,1.01-1.14h3.21c-.34,1.3-1.02,2.32-2.03,3.06-1.01,.74-2.23,1.12-3.65,1.12-1.16,0-2.2-.26-3.11-.78-.92-.52-1.63-1.24-2.14-2.16-.51-.92-.77-1.97-.77-3.16s.26-2.24,.77-3.16c.51-.93,1.23-1.65,2.14-2.17,.92-.52,1.95-.78,3.11-.78m0-.55c-1.25,0-2.39,.29-3.38,.85-1,.57-1.79,1.37-2.35,2.38-.55,1.01-.84,2.16-.84,3.43s.28,2.42,.84,3.42c.56,1.01,1.35,1.8,2.35,2.37,.99,.56,2.13,.85,3.38,.85,1.53,0,2.87-.41,3.98-1.22,1.11-.82,1.86-1.95,2.24-3.37l.18-.69h-4.27l-.15,.31c-.19,.4-.45,.7-.8,.91-.35,.21-.75,.31-1.21,.31-.74,0-1.32-.25-1.77-.75-.47-.53-.7-1.23-.7-2.14s.23-1.61,.7-2.14c.45-.51,1.03-.75,1.77-.75,.46,0,.86,.1,1.21,.31,.35,.21,.61,.5,.8,.91l.15,.31h4.27l-.18-.69c-.37-1.41-1.12-2.55-2.23-3.37-1.1-.82-2.44-1.23-3.98-1.23h0Z"/>
      <path class="cls-1" d="M59.26,2.96v1.86c.34-.52,.77-.94,1.28-1.24,.51-.3,1.08-.45,1.71-.45v3.09h-.8c-.73,0-1.27,.16-1.64,.47-.36,.31-.55,.86-.55,1.65v4.42h-2.92V2.96h2.92m.55-.55h-4.02V13.3h4.02v-4.97c0-.42,.06-.98,.35-1.23,.26-.22,.69-.34,1.28-.34h1.35V2.58h-.55c-.72,0-1.39,.18-1.99,.53-.16,.09-.31,.19-.45,.3v-1h0Z"/>
      <path class="cls-1" d="M69.32,2.96c.92,0,1.74,.19,2.46,.58,.72,.39,1.28,.94,1.68,1.65,.4,.72,.61,1.55,.61,2.51,0,.27-.02,.56-.05,.85h-6.6c.05,.59,.24,1.04,.57,1.36,.34,.31,.75,.47,1.24,.47,.73,0,1.23-.31,1.52-.92h3.11c-.16,.63-.45,1.19-.86,1.69-.42,.5-.94,.89-1.56,1.18-.63,.28-1.32,.43-2.1,.43-.93,0-1.76-.2-2.49-.6-.73-.4-1.3-.97-1.71-1.71-.41-.74-.61-1.6-.61-2.59s.2-1.85,.61-2.59c.4-.74,.97-1.31,1.7-1.71,.73-.4,1.56-.6,2.51-.6m-1.89,3.97h3.65c0-.5-.17-.9-.51-1.19-.34-.3-.77-.44-1.28-.44s-.9,.14-1.24,.43c-.34,.28-.54,.69-.62,1.21m1.89-4.53c-1.03,0-1.97,.22-2.77,.66-.82,.45-1.46,1.09-1.92,1.93-.45,.82-.67,1.78-.67,2.86s.23,2.04,.68,2.86c.46,.83,1.11,1.48,1.92,1.92,.8,.44,1.73,.66,2.75,.66,.85,0,1.63-.16,2.33-.48,.7-.32,1.29-.76,1.76-1.33,.47-.56,.79-1.2,.97-1.91l.12-.49h0s.05-.2,.05-.2h-.03l.03-.29c.04-.31,.05-.62,.05-.92,0-1.05-.23-1.98-.68-2.78-.45-.81-1.09-1.43-1.9-1.87-.79-.43-1.71-.65-2.72-.65h0Zm-1.13,3.97c.06-.09,.13-.17,.21-.24,.23-.2,.52-.3,.88-.3,.38,0,.68,.1,.92,.31,.08,.07,.14,.14,.19,.23h-2.2Zm-.11,2.72h2.21l-.06,.12c-.19,.42-.51,.6-1.02,.6-.35,0-.63-.1-.86-.32-.12-.11-.21-.24-.27-.4h0Z"/>
      <path class="cls-1" d="M86.33,2.96V12.75h-2.92v-1.48c-.28,.44-.68,.8-1.19,1.07-.51,.27-1.09,.41-1.77,.41-.77,0-1.48-.2-2.12-.61-.64-.4-1.14-.98-1.51-1.72-.37-.75-.55-1.61-.55-2.58s.18-1.84,.55-2.58c.37-.74,.87-1.31,1.51-1.71,.64-.4,1.35-.6,2.13-.6,.67,0,1.26,.14,1.77,.41,.51,.27,.9,.63,1.17,1.07v-1.48h2.92m-5,7.25c.58,0,1.07-.21,1.48-.63,.4-.42,.61-1,.61-1.72s-.2-1.3-.61-1.72c-.4-.42-.9-.63-1.48-.63s-1.07,.21-1.48,.62c-.4,.42-.61,.99-.61,1.71s.2,1.31,.61,1.73c.4,.43,.9,.64,1.48,.64m5.55-7.8h-4.02v.69c-.11-.08-.23-.15-.36-.22-.58-.32-1.27-.48-2.03-.48-.89,0-1.7,.23-2.42,.68-.72,.45-1.3,1.1-1.71,1.93-.41,.81-.61,1.76-.61,2.82s.21,2.01,.61,2.83c.41,.83,.99,1.49,1.71,1.94,.72,.46,1.53,.69,2.41,.69,.76,0,1.44-.16,2.03-.48,.13-.07,.26-.15,.37-.23v.7h4.02V2.41h0Zm-5.55,7.25c-.43,0-.78-.15-1.08-.47-.31-.32-.46-.77-.46-1.35s.15-1.02,.45-1.33c.3-.31,.65-.46,1.08-.46s.78,.15,1.08,.46c.3,.32,.45,.76,.45,1.34s-.15,1.02-.45,1.34c-.3,.31-.65,.46-1.08,.46h0Z"/>
      <path class="cls-1" d="M92.82,.6V2.98h1.96v2.49h-1.96v3.92c0,.29,.07,.5,.21,.63,.14,.13,.37,.19,.7,.19h1.07v2.54h-1.52c-1.09,0-1.93-.27-2.54-.8-.61-.53-.91-1.4-.91-2.6v-3.89h-1.19V2.98h1.19V.6h2.99m.57-.57h-4.12V2.42h-1.19v3.62h1.19v3.32c0,1.37,.37,2.38,1.1,3.02,.71,.62,1.69,.94,2.91,.94h2.09v-3.67h-1.63c-.25,0-.32-.05-.32-.05,0,0-.02-.07-.02-.21v-3.36h1.96V2.42h-1.96V.03h0Z"/>
      <path class="cls-1" d="M102.07,2.96c.93,0,1.77,.2,2.52,.6,.75,.4,1.34,.97,1.77,1.71,.43,.75,.65,1.61,.65,2.59s-.22,1.84-.66,2.58c-.44,.75-1.04,1.32-1.79,1.71-.76,.4-1.6,.6-2.53,.6s-1.77-.2-2.52-.6c-.74-.4-1.33-.97-1.76-1.71-.43-.74-.64-1.6-.64-2.59s.22-1.84,.65-2.59c.43-.74,1.02-1.32,1.77-1.71,.75-.4,1.59-.6,2.53-.6m-.03,7.27c.56,0,1.03-.2,1.42-.61,.39-.41,.59-1,.59-1.76s-.19-1.35-.57-1.76c-.38-.41-.85-.61-1.41-.61s-1.04,.2-1.42,.61c-.38,.4-.56,.99-.56,1.77s.19,1.35,.55,1.76c.37,.41,.83,.61,1.39,.61m.03-7.82c-1.02,0-1.96,.22-2.78,.66-.84,.44-1.51,1.09-1.99,1.92-.48,.83-.72,1.79-.72,2.86s.24,2.05,.71,2.87c.48,.83,1.14,1.47,1.98,1.92,.82,.44,1.75,.66,2.78,.66s1.96-.22,2.79-.66c.84-.44,1.52-1.09,2.01-1.92,.49-.83,.73-1.79,.73-2.86s-.24-2.04-.72-2.86c-.48-.83-1.15-1.48-1.99-1.92-.83-.44-1.76-.66-2.78-.66h0Zm-.03,7.27c-.4,0-.72-.14-.98-.43-.27-.3-.41-.77-.41-1.39s.14-1.09,.42-1.39c.27-.29,.59-.43,1.01-.43s.73,.14,1,.44c.28,.3,.42,.77,.42,1.38s-.15,1.07-.44,1.38c-.29,.3-.62,.44-1.03,.44h0Z"/>
      <path class="cls-1" d="M112.19,2.96v1.86c.34-.52,.77-.94,1.28-1.24,.51-.3,1.08-.45,1.71-.45v3.09h-.8c-.73,0-1.27,.16-1.64,.47-.36,.31-.55,.86-.55,1.65v4.42h-2.92V2.96h2.92m.55-.55h-4.02V13.3h4.02v-4.97c0-.42,.06-.98,.35-1.23,.26-.22,.69-.34,1.28-.34h1.35V2.58h-.55c-.72,0-1.39,.18-1.99,.53-.16,.09-.31,.19-.45,.3v-1h0Z"/>
      <path class="cls-1" d="M131.18,.62V12.75h-2.96l-4.94-7.48v7.48h-2.96V.62h2.96l4.94,7.52V.62h2.96m.56-.56h-4.07V6.27l-3.92-5.96-.17-.25h-3.82V13.31h4.07V7.12l3.92,5.93,.17,.25h3.81V.06h0Z"/>
      <path class="cls-1" d="M138.65,2.96c.92,0,1.74,.19,2.46,.58s1.28,.94,1.68,1.65c.4,.72,.61,1.55,.61,2.51,0,.27-.02,.56-.05,.85h-6.6c.05,.59,.24,1.04,.57,1.36,.34,.31,.75,.47,1.24,.47,.73,0,1.23-.31,1.52-.92h3.1c-.16,.63-.45,1.19-.86,1.69-.42,.5-.94,.89-1.56,1.18-.63,.28-1.32,.43-2.1,.43-.93,0-1.76-.2-2.49-.6-.73-.4-1.3-.97-1.71-1.71-.41-.74-.61-1.6-.61-2.59s.2-1.85,.61-2.59c.4-.74,.97-1.31,1.7-1.71,.73-.4,1.56-.6,2.51-.6m-1.89,3.97h3.65c0-.5-.17-.9-.51-1.19-.34-.3-.77-.44-1.28-.44s-.9,.14-1.24,.43c-.34,.28-.54,.69-.62,1.21m1.89-4.53c-1.03,0-1.97,.22-2.77,.66-.82,.45-1.46,1.1-1.92,1.93-.45,.82-.67,1.78-.67,2.86s.23,2.04,.68,2.86c.46,.83,1.11,1.48,1.92,1.92,.8,.44,1.73,.66,2.75,.66,.85,0,1.63-.16,2.33-.48,.7-.32,1.29-.76,1.76-1.33,.47-.56,.79-1.2,.97-1.91l.12-.49h0v-.02s.05-.18,.05-.18h-.02l.03-.29c.04-.31,.05-.62,.05-.92,0-1.05-.23-1.98-.68-2.78-.45-.81-1.09-1.43-1.9-1.87-.79-.43-1.71-.65-2.72-.65h0Zm-1.13,3.97c.06-.09,.13-.17,.21-.24,.23-.2,.52-.3,.88-.3,.38,0,.68,.1,.92,.31,.08,.07,.14,.14,.19,.23h-2.2Zm-.11,2.72h2.21l-.06,.12c-.19,.42-.51,.6-1.02,.6-.35,0-.63-.1-.86-.32-.11-.11-.21-.24-.27-.4h0Z"/>
      <path class="cls-1" d="M149.68,.58V2.96h1.96v2.49h-1.96v3.93c0,.29,.07,.5,.21,.63,.14,.13,.37,.19,.7,.19h1.07v2.54h-1.53c-1.09,0-1.93-.27-2.54-.8-.61-.53-.91-1.4-.91-2.6v-3.89h-1.19V2.96h1.19V.58h3m.57-.57h-4.13V2.4h-1.19v3.62h1.19v3.33c0,1.37,.37,2.39,1.11,3.03,.71,.62,1.69,.94,2.92,.94h2.09v-3.67h-1.64c-.25,0-.32-.05-.32-.05,0,0-.02-.07-.02-.21v-3.36h1.96V2.4h-1.96V.01h0Z"/>
      <path class="cls-1" d="M168.77,2.96l-2.58,9.79h-3.22l-1.5-6.18-1.55,6.18h-3.21l-2.59-9.79h2.92l1.35,7.08,1.6-7.08h3.09l1.62,7.05,1.33-7.05h2.75m.71-.55h-3.92l-.08,.45-.84,4.46-1.03-4.48-.1-.43h-3.97l-.1,.43-1.02,4.5-.85-4.48-.09-.45h-4.09l.18,.69,2.59,9.79,.11,.41h4.06l.1-.42,1.01-4.02,.98,4.01,.1,.42h4.08l.11-.41,2.58-9.79,.18-.69h0Z"/>
      <path class="cls-1" d="M175.5,2.96c.93,0,1.77,.2,2.53,.6,.75,.4,1.34,.97,1.77,1.71,.43,.75,.65,1.61,.65,2.59s-.22,1.84-.66,2.58c-.44,.75-1.04,1.32-1.79,1.71-.76,.4-1.6,.6-2.53,.6s-1.77-.2-2.52-.6c-.75-.4-1.33-.97-1.76-1.71-.43-.74-.64-1.6-.64-2.59s.22-1.84,.65-2.59c.43-.74,1.02-1.32,1.77-1.71,.75-.4,1.59-.6,2.52-.6m-.03,7.27c.56,0,1.03-.2,1.42-.61,.39-.41,.59-1,.59-1.76s-.19-1.35-.57-1.76c-.38-.41-.85-.61-1.41-.61s-1.04,.2-1.42,.61c-.38,.4-.56,.99-.56,1.77s.18,1.35,.55,1.76c.37,.41,.83,.61,1.39,.61m.03-7.82c-1.02,0-1.96,.22-2.78,.66-.84,.44-1.51,1.09-1.99,1.92-.48,.83-.72,1.79-.72,2.86s.24,2.05,.71,2.87c.48,.83,1.14,1.47,1.98,1.92,.82,.44,1.75,.66,2.78,.66s1.96-.22,2.79-.66c.84-.44,1.52-1.09,2.01-1.92,.49-.83,.73-1.79,.73-2.86s-.24-2.04-.72-2.86c-.48-.83-1.15-1.48-1.99-1.92-.83-.44-1.76-.66-2.78-.66h0Zm-.03,7.27c-.4,0-.72-.14-.98-.43-.27-.3-.41-.77-.41-1.39s.14-1.09,.42-1.39c.27-.29,.59-.43,1.01-.43s.73,.14,1,.44c.28,.3,.42,.77,.42,1.38s-.15,1.07-.44,1.38c-.29,.3-.62,.44-1.03,.44h0Z"/>
      <path class="cls-1" d="M185.63,2.96v1.86c.34-.52,.77-.94,1.28-1.24,.51-.3,1.08-.45,1.71-.45v3.09h-.8c-.73,0-1.27,.16-1.64,.47-.36,.31-.55,.86-.55,1.65v4.42h-2.92V2.96h2.92m.55-.55h-4.02V13.3h4.02v-4.97c0-.42,.06-.98,.35-1.23,.26-.22,.69-.34,1.28-.34h1.35V2.58h-.55c-.72,0-1.39,.18-1.99,.53-.16,.09-.31,.19-.45,.3v-1h0Z"/>
      <path class="cls-1" d="M193.72,.58V7.31l2.96-4.35h3.16l-3.68,5.22,3.85,4.57h-3.49l-2.8-3.85v3.85h-2.81V.58h2.81m.53-.53h-3.87V13.28h3.87v-2.74l1.84,2.53,.16,.22h4.9l-.73-.87-3.58-4.26,3.45-4.89,.59-.84h-4.46l-.16,.23-1.99,2.93V.05h0Z"/>
    </g>
  </g>
</svg>