<?xml version="1.0" encoding="UTF-8"?>
<svg id="Ebene_2" data-name="Ebene 2" xmlns="http://www.w3.org/2000/svg" viewBox="0 0 588.34 38.95">
  <defs>
    <style>
      .cls-1 {
        fill: #fff;
      }
    </style>
  </defs>
  <g id="Ebene_6" data-name="Ebene 6">
    <g>
      <path class="cls-1" d="M26.04,.07V26.22c0,4.05-1.14,7.17-3.42,9.35-2.28,2.19-5.35,3.28-9.22,3.28s-7.3-1.15-9.74-3.44c-2.44-2.3-3.66-5.56-3.66-9.79H9.3c0,1.6,.33,2.82,.99,3.64,.66,.82,1.6,1.23,2.84,1.23,1.13,0,2-.37,2.63-1.09,.62-.73,.93-1.79,.93-3.17V.07h9.35Z"/>
      <path class="cls-1" d="M60.88,22.31c1.36,1.75,2.04,3.75,2.04,6,0,3.24-1.13,5.81-3.4,7.71-2.27,1.9-5.42,2.84-9.48,2.84H31.98V.07h17.46c3.94,0,7.03,.9,9.25,2.71,2.23,1.81,3.34,4.26,3.34,7.35,0,2.29-.6,4.18-1.8,5.69-1.2,1.51-2.79,2.56-4.78,3.15,2.25,.48,4.05,1.59,5.42,3.34Zm-19.45-6.55h6.19c1.55,0,2.73-.34,3.56-1.02s1.24-1.69,1.24-3.01-.41-2.34-1.24-3.04-2.02-1.05-3.56-1.05h-6.19V15.76Zm10.64,14.39c.86-.72,1.3-1.76,1.3-3.12s-.45-2.43-1.35-3.21c-.9-.77-2.15-1.16-3.73-1.16h-6.85v8.56h6.96c1.58,0,2.81-.36,3.67-1.08Z"/>
      <path class="cls-1" d="M111.27,.07V38.86h-9.45V15.6l-8.67,23.26h-7.63l-8.73-23.32v23.32h-9.45V.07h11.16l10.88,26.85L100.17,.07h11.11Z"/>
      <path class="cls-1" d="M140.88,1.61c4.16,0,7.72,1.1,10.68,3.29,2.96,2.19,4.94,5.19,5.94,8.98h-9.38c-.7-1.46-1.69-2.58-2.97-3.34-1.28-.77-2.74-1.15-4.37-1.15-2.63,0-4.76,.91-6.39,2.74-1.63,1.83-2.44,4.27-2.44,7.34s.81,5.51,2.44,7.33c1.63,1.83,3.76,2.74,6.39,2.74,1.63,0,3.09-.38,4.37-1.15,1.28-.76,2.27-1.88,2.97-3.34h9.38c-1,3.79-2.98,6.78-5.94,8.96-2.96,2.18-6.52,3.27-10.68,3.27-3.39,0-6.43-.76-9.11-2.27-2.68-1.51-4.76-3.62-6.26-6.31-1.5-2.69-2.25-5.77-2.25-9.23s.75-6.55,2.25-9.26,3.58-4.82,6.26-6.34c2.68-1.51,5.71-2.27,9.11-2.27m0-1.61c-3.66,0-6.99,.83-9.9,2.48-2.93,1.66-5.24,4-6.88,6.96-1.62,2.94-2.45,6.32-2.45,10.04s.82,7.09,2.45,10.01c1.64,2.95,3.95,5.28,6.88,6.93,2.91,1.65,6.24,2.48,9.9,2.48,4.49,0,8.4-1.21,11.63-3.58,3.25-2.39,5.45-5.7,6.54-9.84l.53-2.02h-12.49l-.44,.92c-.56,1.18-1.33,2.05-2.34,2.65-1.04,.62-2.19,.92-3.54,.92-2.17,0-3.86-.72-5.18-2.2-1.37-1.54-2.04-3.59-2.04-6.26s.67-4.72,2.04-6.26c1.32-1.48,3.02-2.2,5.18-2.2,1.35,0,2.5,.3,3.54,.92,1.01,.6,1.78,1.47,2.34,2.65l.44,.92h12.49l-.53-2.02c-1.09-4.14-3.29-7.46-6.54-9.87-3.23-2.4-7.15-3.61-11.64-3.61h0Z"/>
      <path class="cls-1" d="M173.34,8.65v5.44c1-1.53,2.25-2.73,3.74-3.62,1.5-.88,3.16-1.32,4.99-1.32v9.03h-2.35c-2.13,0-3.73,.46-4.79,1.37-1.07,.92-1.6,2.52-1.6,4.82v12.92h-8.53V8.65h8.53m1.61-1.61h-11.76v31.86h11.76v-14.53c0-1.23,.18-2.86,1.04-3.59,.76-.65,2.02-.98,3.74-.98h3.96V7.54h-1.61c-2.11,0-4.07,.52-5.81,1.54-.46,.27-.9,.57-1.31,.89v-2.93h0Z"/>
      <path class="cls-1" d="M202.76,8.65c2.69,0,5.09,.57,7.19,1.7,2.1,1.13,3.73,2.74,4.91,4.84,1.18,2.1,1.77,4.54,1.77,7.33,0,.8-.05,1.63-.15,2.5h-19.31c.13,1.73,.69,3.05,1.67,3.97,.98,.91,2.19,1.37,3.62,1.37,2.13,0,3.61-.9,4.44-2.7h9.08c-.47,1.83-1.31,3.48-2.52,4.94-1.22,1.46-2.74,2.61-4.57,3.44-1.83,.83-3.88,1.25-6.14,1.25-2.73,0-5.16-.58-7.29-1.75-2.13-1.16-3.79-2.83-4.99-4.99-1.2-2.16-1.8-4.69-1.8-7.58s.59-5.42,1.77-7.58c1.18-2.16,2.84-3.83,4.96-4.99,2.13-1.17,4.57-1.75,7.34-1.75m-5.54,11.63h10.68c0-1.46-.5-2.63-1.5-3.49-1-.86-2.25-1.3-3.74-1.3s-2.64,.42-3.62,1.25c-.98,.83-1.59,2.01-1.82,3.54m5.54-13.24c-3.03,0-5.75,.65-8.11,1.94-2.39,1.31-4.28,3.2-5.6,5.63-1.31,2.39-1.97,5.2-1.97,8.36s.67,5.97,2,8.37c1.34,2.42,3.23,4.32,5.63,5.62,2.36,1.29,5.07,1.94,8.06,1.94,2.48,0,4.77-.47,6.8-1.39,2.04-.93,3.77-2.23,5.14-3.88,1.36-1.64,2.32-3.52,2.84-5.57l.36-1.43h0v-.05s.14-.52,.14-.52h-.07l.1-.85c.11-.91,.16-1.82,.16-2.68,0-3.06-.67-5.8-1.98-8.13-1.33-2.36-3.2-4.2-5.55-5.47-2.32-1.25-5-1.89-7.95-1.89h0Zm-3.29,11.63c.17-.27,.38-.5,.62-.7,.69-.58,1.53-.86,2.58-.86,1.11,0,1.99,.3,2.69,.9,.23,.2,.41,.42,.56,.66h-6.44Zm-.32,7.96h6.45l-.17,.36c-.56,1.22-1.48,1.76-2.98,1.76-1.02,0-1.84-.31-2.52-.94-.34-.31-.6-.7-.79-1.18h0Z"/>
      <path class="cls-1" d="M252.5,8.65v28.64h-8.53v-4.34c-.83,1.3-1.99,2.34-3.47,3.14-1.48,.8-3.2,1.2-5.16,1.2-2.26,0-4.33-.59-6.19-1.77-1.86-1.18-3.34-2.86-4.42-5.04-1.08-2.18-1.62-4.7-1.62-7.56s.54-5.37,1.62-7.53c1.08-2.16,2.55-3.83,4.42-4.99,1.86-1.17,3.94-1.75,6.24-1.75,1.96,0,3.68,.4,5.16,1.2,1.48,.8,2.62,1.85,3.42,3.14v-4.34h8.53m-14.62,21.21c1.7,0,3.14-.62,4.32-1.85,1.18-1.23,1.77-2.91,1.77-5.04s-.59-3.81-1.77-5.04c-1.18-1.23-2.62-1.85-4.32-1.85s-3.14,.61-4.32,1.82c-1.18,1.22-1.77,2.89-1.77,5.02s.59,3.82,1.77,5.07c1.18,1.25,2.62,1.87,4.32,1.87m16.23-22.82h-11.76v2.02c-.33-.22-.68-.43-1.04-.63-1.71-.92-3.7-1.39-5.93-1.39-2.59,0-4.98,.67-7.09,1.99-2.11,1.32-3.79,3.21-5,5.64-1.19,2.37-1.79,5.15-1.79,8.25s.6,5.89,1.79,8.28c1.21,2.44,2.89,4.35,5,5.68,2.11,1.34,4.49,2.02,7.05,2.02,2.22,0,4.22-.47,5.93-1.39,.38-.21,.75-.43,1.09-.66v2.05h11.76V7.04h0Zm-16.23,21.21c-1.25,0-2.28-.45-3.15-1.37-.9-.95-1.33-2.24-1.33-3.96s.43-2.98,1.32-3.89c.87-.9,1.91-1.33,3.16-1.33s2.28,.44,3.15,1.35c.89,.93,1.32,2.21,1.32,3.92s-.43,3-1.32,3.92c-.87,.91-1.9,1.35-3.15,1.35h0Z"/>
      <path class="cls-1" d="M271.49,1.75v6.96h5.73v7.27h-5.73v11.47c0,.85,.21,1.47,.61,1.84,.41,.38,1.09,.56,2.05,.56h3.12v7.42h-4.46c-3.17,0-5.65-.78-7.42-2.33-1.78-1.55-2.66-4.09-2.66-7.6V15.99h-3.48v-7.27h3.48V1.75h8.76m1.65-1.65h-12.06V7.06h-3.48v10.58h3.48v9.71c0,4,1.09,6.97,3.23,8.85,2.08,1.82,4.94,2.74,8.51,2.74h6.11v-10.73h-4.78c-.73,0-.94-.14-.95-.14,0,0-.06-.2-.06-.61v-9.82h5.73V7.06h-5.73V.1h0Z"/>
      <path class="cls-1" d="M298.55,8.65c2.73,0,5.19,.58,7.39,1.75,2.19,1.16,3.92,2.84,5.19,5.01,1.27,2.18,1.9,4.7,1.9,7.56s-.64,5.38-1.92,7.56c-1.28,2.18-3.03,3.85-5.24,5.02-2.21,1.17-4.68,1.75-7.41,1.75s-5.18-.58-7.36-1.75c-2.18-1.16-3.89-2.83-5.14-4.99-1.25-2.16-1.87-4.69-1.87-7.58s.63-5.38,1.9-7.56c1.26-2.18,2.99-3.85,5.19-5.01,2.2-1.17,4.66-1.75,7.39-1.75m-.1,21.26c1.63,0,3.02-.6,4.17-1.8,1.15-1.2,1.72-2.91,1.72-5.14s-.56-3.94-1.67-5.14-2.49-1.8-4.12-1.8-3.04,.59-4.14,1.77c-1.1,1.18-1.65,2.9-1.65,5.17s.54,3.94,1.62,5.14c1.08,1.2,2.44,1.8,4.07,1.8m.1-22.87c-2.98,0-5.72,.65-8.14,1.93-2.46,1.3-4.42,3.2-5.83,5.63-1.4,2.42-2.11,5.23-2.11,8.37s.7,5.99,2.09,8.39c1.39,2.42,3.34,4.3,5.78,5.61,2.4,1.28,5.13,1.94,8.12,1.94s5.73-.65,8.16-1.93c2.47-1.3,4.45-3.19,5.88-5.62,1.42-2.42,2.14-5.24,2.14-8.38s-.71-5.95-2.11-8.37c-1.41-2.43-3.37-4.33-5.83-5.63-2.42-1.28-5.16-1.93-8.14-1.93h0Zm-.1,21.26c-1.18,0-2.09-.4-2.87-1.26-.8-.89-1.21-2.25-1.21-4.06s.41-3.2,1.22-4.07c.8-.86,1.74-1.26,2.96-1.26s2.12,.41,2.94,1.28c.82,.88,1.24,2.24,1.24,4.04s-.43,3.14-1.28,4.03c-.84,.87-1.82,1.3-3,1.3h0Z"/>
      <path class="cls-1" d="M328.17,8.65v5.44c1-1.53,2.25-2.73,3.74-3.62,1.5-.88,3.16-1.32,4.99-1.32v9.03h-2.34c-2.13,0-3.73,.46-4.79,1.37-1.07,.92-1.6,2.52-1.6,4.82v12.92h-8.53V8.65h8.53m1.61-1.61h-11.75v31.86h11.75v-14.53c0-1.23,.18-2.86,1.04-3.6,.76-.65,2.02-.98,3.74-.98h3.96V7.54h-1.61c-2.11,0-4.07,.52-5.81,1.54-.46,.27-.9,.57-1.31,.89v-2.93h0Z"/>
      <path class="cls-1" d="M383.71,1.8V37.29h-8.65l-14.46-21.89v21.89h-8.65V1.8h8.65l14.46,21.99V1.8h8.65m1.63-1.63h-11.91V18.34L361.97,.9l-.48-.74h-11.16V38.92h11.91V20.83l11.46,17.36,.48,.73h11.16V.17h0Z"/>
      <path class="cls-1" d="M405.54,8.65c2.7,0,5.09,.57,7.19,1.7,2.1,1.13,3.73,2.74,4.91,4.84,1.18,2.1,1.77,4.54,1.77,7.33,0,.8-.05,1.63-.15,2.5h-19.31c.13,1.73,.69,3.05,1.67,3.97,.98,.91,2.19,1.37,3.62,1.37,2.13,0,3.61-.9,4.44-2.7h9.08c-.47,1.83-1.31,3.48-2.52,4.94-1.22,1.46-2.74,2.61-4.57,3.44-1.83,.83-3.88,1.25-6.14,1.25-2.73,0-5.16-.58-7.28-1.75-2.13-1.16-3.79-2.83-4.99-4.99-1.2-2.16-1.8-4.69-1.8-7.58s.59-5.42,1.77-7.58c1.18-2.16,2.84-3.83,4.96-4.99,2.13-1.17,4.57-1.75,7.33-1.75m-5.54,11.63h10.68c0-1.46-.5-2.63-1.5-3.49-1-.86-2.25-1.3-3.74-1.3s-2.64,.42-3.62,1.25c-.98,.83-1.59,2.01-1.82,3.54m5.54-13.24c-3.02,0-5.75,.65-8.11,1.94-2.39,1.31-4.28,3.2-5.61,5.63-1.31,2.39-1.97,5.2-1.97,8.36s.67,5.97,2,8.37c1.34,2.42,3.23,4.32,5.63,5.62,2.36,1.29,5.07,1.94,8.06,1.94,2.48,0,4.77-.47,6.81-1.39,2.04-.93,3.77-2.23,5.14-3.88,1.36-1.64,2.32-3.52,2.84-5.57l.36-1.43h0v-.06s.14-.52,.14-.52h-.07l.1-.85c.11-.92,.16-1.82,.16-2.68,0-3.06-.67-5.8-1.98-8.13-1.33-2.36-3.2-4.2-5.55-5.47-2.32-1.25-5-1.89-7.95-1.89h0Zm-3.29,11.63c.17-.27,.38-.5,.62-.7,.69-.58,1.53-.87,2.58-.87,1.11,0,1.99,.3,2.69,.9,.23,.2,.41,.42,.56,.66h-6.44Zm-.32,7.96h6.46l-.17,.36c-.56,1.22-1.48,1.76-2.98,1.76-1.02,0-1.84-.31-2.52-.94-.34-.31-.6-.7-.79-1.18h0Z"/>
      <path class="cls-1" d="M437.8,1.7v6.97h5.74v7.28h-5.74v11.49c0,.86,.2,1.47,.62,1.85,.41,.38,1.09,.56,2.05,.56h3.13v7.44h-4.46c-3.18,0-5.66-.78-7.44-2.33-1.78-1.55-2.67-4.09-2.67-7.62V15.95h-3.49v-7.28h3.49V1.7h8.77m1.66-1.66h-12.08V7.01h-3.49v10.6h3.49v9.73c0,4,1.09,6.99,3.23,8.86,2.08,1.82,4.95,2.74,8.53,2.74h6.12v-10.75h-4.78c-.73,0-.94-.14-.95-.14,0,0-.06-.2-.06-.61v-9.83h5.74V7.01h-5.74V.04h0Z"/>
      <path class="cls-1" d="M493.65,8.65l-7.54,28.64h-9.43l-4.39-18.06-4.54,18.06h-9.38l-7.58-28.64h8.53l3.94,20.71,4.69-20.71h9.03l4.74,20.61,3.89-20.61h8.03m2.09-1.61h-11.46l-.25,1.31-2.46,13.05-3.02-13.11-.29-1.25h-11.6l-.28,1.26-2.98,13.17-2.5-13.11-.25-1.31h-11.96l.54,2.02,7.58,28.64,.32,1.2h11.88l.31-1.22,2.95-11.74,2.85,11.73,.3,1.23h11.94l.32-1.2,7.54-28.64,.53-2.02h0Z"/>
      <path class="cls-1" d="M513.35,8.65c2.73,0,5.19,.58,7.39,1.75,2.2,1.16,3.93,2.84,5.19,5.01,1.26,2.18,1.9,4.7,1.9,7.56s-.64,5.38-1.92,7.56c-1.28,2.18-3.03,3.85-5.24,5.02-2.21,1.17-4.68,1.75-7.41,1.75s-5.18-.58-7.36-1.75c-2.18-1.16-3.89-2.83-5.14-4.99-1.25-2.16-1.87-4.69-1.87-7.58s.63-5.38,1.9-7.56c1.26-2.18,2.99-3.85,5.19-5.01,2.2-1.17,4.66-1.75,7.38-1.75m-.1,21.26c1.63,0,3.02-.6,4.17-1.8,1.15-1.2,1.72-2.91,1.72-5.14s-.56-3.94-1.67-5.14-2.49-1.8-4.12-1.8-3.04,.59-4.14,1.77c-1.1,1.18-1.65,2.9-1.65,5.17s.54,3.94,1.62,5.14c1.08,1.2,2.44,1.8,4.07,1.8m.1-22.87c-2.98,0-5.72,.65-8.14,1.93-2.45,1.3-4.41,3.19-5.83,5.63-1.4,2.42-2.11,5.23-2.11,8.37s.7,5.99,2.09,8.39c1.39,2.42,3.34,4.3,5.78,5.61,2.4,1.28,5.13,1.94,8.12,1.94s5.73-.65,8.16-1.93c2.47-1.3,4.45-3.19,5.88-5.62,1.42-2.42,2.14-5.24,2.14-8.38s-.71-5.95-2.11-8.37c-1.41-2.43-3.37-4.33-5.83-5.63-2.42-1.28-5.16-1.93-8.14-1.93h0Zm-.1,21.26c-1.18,0-2.09-.4-2.87-1.26-.8-.89-1.21-2.25-1.21-4.06s.41-3.2,1.22-4.07c.8-.86,1.74-1.26,2.96-1.26s2.12,.41,2.94,1.28c.82,.88,1.24,2.24,1.24,4.04s-.43,3.14-1.27,4.03c-.84,.87-1.82,1.3-3,1.3h0Z"/>
      <path class="cls-1" d="M542.97,8.65v5.44c1-1.53,2.25-2.73,3.74-3.62,1.5-.88,3.16-1.32,4.99-1.32v9.03h-2.35c-2.13,0-3.72,.46-4.79,1.37-1.07,.92-1.6,2.52-1.6,4.82v12.92h-8.53V8.65h8.53m1.61-1.61h-11.75v31.86h11.75v-14.53c0-1.23,.18-2.86,1.04-3.59,.76-.65,2.02-.98,3.74-.98h3.96V7.54h-1.61c-2.11,0-4.07,.52-5.81,1.54-.46,.27-.9,.57-1.31,.89v-2.93h0Z"/>
      <path class="cls-1" d="M566.63,1.7V21.37l8.67-12.72h9.23l-10.78,15.27,11.26,13.37h-10.2l-8.18-11.26v11.26h-8.23V1.7h8.23m1.55-1.55h-11.33V38.84h11.33v-8.03l5.37,7.39,.47,.64h14.33l-2.15-2.55-10.48-12.46,10.09-14.29,1.73-2.45h-13.05l-.46,.68-5.83,8.56V.14h0Z"/>
    </g>
  </g>
</svg>