<?xml version="1.0" encoding="UTF-8"?><svg id="Ebene_2" xmlns="http://www.w3.org/2000/svg" viewBox="0 0 1919.98 1381.03"><defs><style>.cls-1{fill:#fff;}.cls-2{fill:#141322;}.cls-3{fill:#52ff98;}</style></defs><g id="Ebene_2-2"><g><path class="cls-2" d="M1919.98,0V1251.93c-40.76-58.73-94.56-102.86-160.86-131.83-186.17-81.32-427.49-29.32-522.58-3.18-97.48,26.79-190.15,62.78-279.78,97.62-69.23,26.92-140.82,54.74-214.34,78.19-53.41,17.04-116.25,33.94-184,45.95-5.62,1-11.28,1.96-16.97,2.89-4.83,.78-9.68,1.53-14.55,2.26-5.06,.76-10.14,1.49-15.25,2.19-101.01,13.85-210.17,15.2-313.65-10.3-68.08-16.78-129.95-44.37-189.78-71.06-1.94-.87-4.09-1.94-6.24-3-.07-16.91-.11-56.29-.12-105.61-.42,.02-.85,.03-1.28,.05v-12.74c.42-.02,.86-.03,1.28-.05,0-19.99,.01-41.34,.01-63.31H.67V0H1919.98Z"/><g id="Gruppe_34"><g id="Gruppe_32"><g id="Gruppe_31"><path class="cls-3" d="M1919.98,1310.44v50.76c-.87-3.33-1.82-6.63-2.85-9.93-14.7-47.18-49.97-89.16-115.06-115.66-78.54-31.98-175.05-36.56-265.24-27.04-183.93,19.41-343.71,85.97-513.78,130.2-152.21,39.59-334.78,62.99-490.18,16.83-1.39-.41-2.77-.83-4.15-1.26-73.35-22.57-129.66-60.59-186.49-96.72-60.16-38.25-123.77-72.73-206.66-88.82-44.21-8.48-89.24-12-134.24-10.49-.44,.02-.88,.03-1.33,.05v-12.75c.44-.02,.89-.03,1.33-.05,79.6-2.54,160.69,10.17,228.94,36.27,72.08,27.56,126.72,68.95,187.08,105.37,30.84,18.61,63.58,36.09,100.78,49.4,13.56,4.84,27.59,9.11,41.98,12.79,26.16,6.61,52.73,11.42,79.53,14.39,181.82,20.6,358.96-28.99,518.79-77.86,83.74-25.6,167.41-51.91,255.79-70.56,91.73-19.36,191.36-31.27,287.43-18.77,78.73,10.24,153.11,38.4,195.08,82.76,8.93,9.42,16.74,19.86,23.25,31.09Z"/></g></g></g></g><g id="HG-2"><g id="Gruppe_45"><path id="Pfad_23" class="cls-3" d="M1274.96,546.13c0,1.7,1.38,3.08,3.08,3.08,1.7,0,3.08-1.38,3.08-3.08,0-1.7-1.38-3.08-3.08-3.08h0c-1.7,0-3.08,1.38-3.08,3.08Z"/><path id="Pfad_23-2" class="cls-3" d="M1792.97,124.13c0,1.7,1.38,3.08,3.08,3.08,1.7,0,3.08-1.38,3.08-3.08,0-1.7-1.38-3.08-3.08-3.08h0c-1.7,0-3.08,1.38-3.08,3.08Z"/><path id="Pfad_24" class="cls-3" d="M1121.46,932.88c0,1.7,1.38,3.08,3.08,3.08s3.08-1.38,3.08-3.08-1.38-3.08-3.08-3.08h0c-1.7,0-3.08,1.38-3.08,3.08Z"/><circle id="Ellipse_1" class="cls-3" cx="1634.12" cy="757.08" r="3.08"/><circle id="Ellipse_2" class="cls-3" cx="123.91" cy="786.31" r="3.08"/><path id="Pfad_26" class="cls-3" d="M442.03,203.33c0,1.7,1.38,3.08,3.08,3.08s3.08-1.38,3.08-3.08-1.38-3.08-3.08-3.08h0c-1.7,0-3.08,1.38-3.08,3.08Z"/><path id="Pfad_27" class="cls-1" d="M581.36,758.1c0,1.7,1.38,3.08,3.08,3.08,1.7,0,3.08-1.38,3.08-3.08s-1.38-3.08-3.08-3.08h0c-1.7,0-3.08,1.38-3.08,3.08Z"/><path id="Pfad_28" class="cls-1" d="M442.03,569.24c0,1.7,1.38,3.08,3.08,3.08,1.7,0,3.08-1.38,3.08-3.08s-1.38-3.08-3.08-3.08h0c-1.7,0-3.08,1.38-3.08,3.08Z"/><path id="Pfad_28-2" class="cls-1" d="M962.03,806.24c0,1.7,1.38,3.08,3.08,3.08,1.7,0,3.08-1.38,3.08-3.08s-1.38-3.08-3.08-3.08h0c-1.7,0-3.08,1.38-3.08,3.08Z"/><path id="Pfad_29" class="cls-1" d="M1303.3,280.07c1.7,0,3.07-1.38,3.07-3.08,0-1.7-1.38-3.07-3.08-3.07s-3.07,1.38-3.07,3.08c0,1.69,1.38,3.07,3.07,3.07h.01Z"/><path id="Pfad_31" class="cls-1" d="M865.54,187.8c0,1.7,1.38,3.08,3.08,3.08s3.08-1.38,3.08-3.08c0-1.7-1.38-3.08-3.08-3.08h0c-1.7,0-3.08,1.38-3.08,3.08Z"/><path id="Pfad_32" class="cls-1" d="M1587.27,728.08c0,1.7,1.38,3.08,3.08,3.08,1.7,0,3.08-1.38,3.08-3.08s-1.38-3.08-3.08-3.08h0c-1.7,0-3.08,1.38-3.08,3.08Z"/></g></g><g id="HG-3"><path id="Pfad_691" class="cls-1" d="M784.29,1146.71l-2.66-16.82,16.82-2.66-1.71-10.82-16.82,2.66-2.66-16.82-10.82,1.71,2.66,16.82-16.82,2.66,1.71,10.82,16.82-2.66,2.66,16.82,10.82-1.71Z"/></g><g id="HG-4"><path id="Pfad_690" class="cls-3" d="M680.16,1222.25l-9.48-3.65,3.65-9.48-6.1-2.34-3.64,9.48-9.48-3.65-2.34,6.09,9.48,3.64-3.64,9.48,6.1,2.34,3.64-9.48,9.48,3.64,2.34-6.09h0Z"/></g></g></svg>