<?xml version="1.0" encoding="UTF-8"?><svg id="Ebene_2" xmlns="http://www.w3.org/2000/svg" viewBox="0 0 372.73 413"><defs><style>.cls-1{fill:#fff;}.cls-2{fill:#141322;}.cls-3{fill:#52ff98;}</style></defs><g id="Ebene_14"><g><path class="cls-2" d="M0,0V391.67c.32,.16,.63,.31,.91,.44,11.65,5.2,23.7,10.59,36.96,13.86,21.13,5.21,43.48,4.67,63.95,1.59,.03,0,.06-.01,.09-.01,2.03-.31,4.05-.63,6.04-.98h.02s.05-.01,.07-.02c12.13-2.2,24.1-5.19,35.83-8.96,14.32-4.58,28.26-10,41.74-15.25,17.45-6.8,35.5-13.82,54.47-19.04,18.52-5.1,65.5-15.24,101.76,.62,12.43,5.35,23.12,14.04,30.89,25.09V0H0Z"/><g id="Gruppe_34"><g id="Gruppe_32"><g id="Gruppe_31"><path class="cls-3" d="M372.73,396.41v8.14c-3.26-8.62-10.03-16.19-21.7-21.13-15.37-6.51-34.26-7.44-51.91-5.5-35.99,3.95-67.26,17.49-100.54,26.49-29.79,8.05-65.52,12.81-95.93,3.42-.27-.08-.54-.17-.81-.26t-.02-.01c-14.35-4.59-25.37-12.31-36.48-19.66-11.78-7.78-24.22-14.8-40.45-18.07-8.19-1.64-16.54-2.36-24.89-2.16v-2.61c15.14-.32,30.46,2.27,43.42,7.42,14.11,5.61,24.8,14.03,36.62,21.44,6.2,4.02,12.81,7.39,19.72,10.05,2.64,.98,5.39,1.85,8.19,2.6h.02c5.11,1.34,10.32,2.32,15.57,2.92,35.58,4.19,70.24-5.9,101.52-15.84,16.39-5.21,32.76-10.56,50.06-14.35,17.95-3.94,37.45-6.36,56.25-3.82,15.41,2.08,29.96,7.81,38.18,16.84,1.16,1.28,2.23,2.64,3.18,4.09Z"/></g></g></g></g><path id="Pfad_23" class="cls-3" d="M143.56,88.63c.64,0,1.15,.52,1.15,1.15,0,.64-.52,1.15-1.15,1.15-.63,0-1.15-.52-1.15-1.15h0c0-.64,.52-1.15,1.15-1.15h0Z"/><path id="Pfad_24" class="cls-3" d="M325.81,56.51c.64,0,1.15,.52,1.15,1.15,0,.64-.52,1.15-1.15,1.15-.63,0-1.15-.52-1.15-1.15h0c0-.64,.52-1.15,1.15-1.15h0Z"/><path id="Pfad_28" class="cls-1" d="M285.99,129.16c.64,0,1.15,.52,1.15,1.15,0,.64-.52,1.15-1.15,1.15-.63,0-1.15-.52-1.15-1.15,0-.64,.52-1.15,1.15-1.15Z"/><path id="Pfad_28-2" class="cls-1" d="M55.63,324.09c.64,0,1.15,.52,1.15,1.15,0,.64-.52,1.15-1.15,1.15-.63,0-1.15-.52-1.15-1.15,0-.64,.52-1.15,1.15-1.15Z"/><path id="Pfad_28-3" class="cls-1" d="M148.68,267.58c.64,0,1.15,.52,1.15,1.15,0,.64-.52,1.15-1.15,1.15-.63,0-1.15-.52-1.15-1.15,0-.64,.52-1.15,1.15-1.15Z"/><path id="Pfad_28-4" class="cls-1" d="M165.85,278.89c.64,0,1.15,.52,1.15,1.15,0,.64-.52,1.15-1.15,1.15-.63,0-1.15-.52-1.15-1.15,0-.64,.52-1.15,1.15-1.15Z"/><path id="Pfad_28-5" class="cls-1" d="M325.81,251.68c.64,0,1.15,.52,1.15,1.15,0,.64-.52,1.15-1.15,1.15-.63,0-1.15-.52-1.15-1.15,0-.64,.52-1.15,1.15-1.15Z"/><path id="Pfad_29" class="cls-1" d="M32.89,122.31c0,.64-.51,1.15-1.15,1.15-.64,0-1.15-.51-1.15-1.15,0-.64,.51-1.15,1.15-1.15h0c.64,0,1.15,.52,1.15,1.15h0Z"/><path id="Pfad_689" class="cls-1" d="M175.08,67l-2.11-3.1,3.11-2.11-1.36-1.99-3.11,2.11-2.11-3.1-2,1.36,2.11,3.1-3.1,2.11,1.36,1.99,3.1-2.11,2.11,3.1,2-1.36Z"/><path id="Pfad_689-2" class="cls-1" d="M333.7,317.65l-2.11-3.1,3.11-2.11-1.36-1.99-3.11,2.11-2.11-3.1-2,1.36,2.11,3.1-3.1,2.11,1.36,1.99,3.1-2.11,2.11,3.1,2-1.36Z"/><path id="Pfad_690" class="cls-3" d="M215.55,89.28l-5.95-1.06,1.06-5.93-3.82-.68-1.06,5.93-5.95-1.06-.68,3.81,5.95,1.06-1.06,5.93,3.82,.68,1.06-5.93,5.95,1.06,.68-3.81Z"/><path id="Pfad_23-2" class="cls-3" d="M149.06,341.88c.64,0,1.15,.52,1.15,1.15,0,.64-.52,1.15-1.15,1.15-.63,0-1.15-.52-1.15-1.15h0c0-.64,.52-1.15,1.15-1.15h0Z"/><path id="Pfad_23-3" class="cls-3" d="M277.81,303.64c.64,0,1.15,.52,1.15,1.15,0,.64-.52,1.15-1.15,1.15-.63,0-1.15-.52-1.15-1.15h0c0-.64,.52-1.15,1.15-1.15h0Z"/></g></svg>