<?xml version="1.0" encoding="UTF-8"?>
<svg id="Ebene_19" viewBox="0 0 1920 975" xmlns="http://www.w3.org/2000/svg">
  <defs>
    <style>.cls-1 {
      fill: #fff;
    }

    .cls-2 {
      fill: #141322;
    }

    .cls-3 {
      fill: none;
    }

    .cls-4 {
      fill: #52ff98;
    }</style>
  </defs>
  <g id="HG">
    <g id="Gruppe_111">
      <path class="cls-2"
            d="M1920.61,849.24c-.43-.68-1.63-2.13-2.08-2.8-41.02-61.32-95.9-107.16-164.08-136.92-185.24-80.82-425.34-29.14-519.96-3.16-96.99,26.62-189.19,62.4-278.37,97.02-68.89,26.75-140.12,54.4-213.27,77.71-53.14,16.93-115.68,33.72-183.08,45.66-5.11,.91-10.24,1.78-15.39,2.62-5.3,.87-10.62,1.7-15.97,2.5-4.72,.71-9.45,1.39-14.21,2.05-100.77,13.88-209.74,15.31-313.04-10.11-67.74-16.68-129.3-44.1-188.83-70.62-3.55-1.59-8.64-4.55-12.33-6.19C-.13,846.95-.57,0-.57,0H1920l.61,849.24Z"/>
      <g id="Gruppe_34">
        <g id="Gruppe_32">
          <g id="Gruppe_31">
            <path class="cls-4"
                  d="M1920.66,950.66c-.42-1.78-.87-3.55-1.33-5.32-.88-3.34-1.84-6.67-2.87-9.99-14.7-47.12-49.97-89.05-115.06-115.52-78.54-31.95-175.05-36.52-265.24-27.01-183.93,19.39-343.71,85.87-513.78,130.05-152.21,39.54-334.78,62.92-490.18,16.81-1.39-.41-2.77-.83-4.15-1.26-73.35-22.54-129.66-60.52-186.49-96.61-60.16-38.2-123.77-72.64-206.66-88.72-44.22-8.47-89.24-11.98-134.24-10.47-.44,.02-.88,.03-1.33,.05v-12.74c.44-.02,.89-.03,1.33-.05,79.6-2.54,160.69,10.16,228.94,36.23,72.08,27.53,126.72,68.87,187.08,105.25,30.84,18.59,63.58,36.05,100.78,49.34,13.56,4.84,27.59,9.1,41.98,12.78,26.15,6.6,52.72,11.4,79.53,14.37,181.82,20.58,358.96-28.96,518.79-77.77,83.74-25.57,167.41-51.85,255.79-70.48,91.73-19.34,191.36-31.23,287.43-18.75,78.73,10.23,153.11,38.36,195.08,82.67,8.94,9.42,16.75,19.85,23.27,31.08,.46,.78,.9,1.56,1.33,2.34v53.72h0Z"
                  id="Pfad_821"/>
          </g>
        </g>
      </g>
    </g>
  </g>
  <g id="HG-2">
    <g id="Gruppe_45">
      <path class="cls-4"
            d="M1273.51,551.97c0,1.7,1.38,3.08,3.08,3.08,1.7,0,3.08-1.38,3.08-3.08,0-1.7-1.38-3.08-3.08-3.08h0c-1.7,0-3.08,1.38-3.08,3.08Z"
            id="Pfad_23"/>
      <path class="cls-4"
            d="M1791.51,129.97c0,1.7,1.38,3.08,3.08,3.08,1.7,0,3.08-1.38,3.08-3.08,0-1.7-1.38-3.08-3.08-3.08h0c-1.7,0-3.08,1.38-3.08,3.08Z"
            id="Pfad_23-2"/>
      <circle class="cls-4" cx="122.46" cy="792.15" id="Ellipse_2" r="3.08"/>
      <path class="cls-4"
            d="M440.57,209.17c0,1.7,1.38,3.08,3.08,3.08s3.08-1.38,3.08-3.08-1.38-3.08-3.08-3.08h0c-1.7,0-3.08,1.38-3.08,3.08Z"
            id="Pfad_26"/>
      <path class="cls-1"
            d="M579.91,763.94c0,1.7,1.38,3.08,3.08,3.08,1.7,0,3.08-1.38,3.08-3.08s-1.38-3.08-3.08-3.08h0c-1.7,0-3.08,1.38-3.08,3.08Z"
            id="Pfad_27"/>
      <path class="cls-1"
            d="M440.57,575.08c0,1.7,1.38,3.08,3.08,3.08,1.7,0,3.08-1.38,3.08-3.08s-1.38-3.08-3.08-3.08h0c-1.7,0-3.08,1.38-3.08,3.08Z"
            id="Pfad_28"/>
      <path class="cls-1"
            d="M960.58,812.08c0,1.7,1.38,3.08,3.08,3.08,1.7,0,3.08-1.38,3.08-3.08s-1.38-3.08-3.08-3.08h0c-1.7,0-3.08,1.38-3.08,3.08Z"
            id="Pfad_28-2"/>
      <path class="cls-1"
            d="M1301.85,285.91c1.7,0,3.07-1.38,3.07-3.08,0-1.7-1.38-3.07-3.08-3.07s-3.07,1.38-3.07,3.08c0,1.69,1.38,3.07,3.07,3.07h.01Z"
            id="Pfad_29"/>
      <path class="cls-1"
            d="M864.09,193.64c0,1.7,1.38,3.08,3.08,3.08s3.08-1.38,3.08-3.08c0-1.7-1.38-3.08-3.08-3.08h0c-1.7,0-3.08,1.38-3.08,3.08Z"
            id="Pfad_31"/>
    </g>
  </g>
  <g id="Gruppe_146">
    <path class="cls-1"
          d="M198.14,403.16v76.47c0,11.83-3.26,20.95-9.78,27.35-6.52,6.4-15.31,9.6-26.36,9.6-11.58,0-20.86-3.36-27.85-10.07s-10.48-16.26-10.48-28.64h26.6c0,4.69,.94,8.24,2.82,10.64,1.88,2.4,4.59,3.6,8.13,3.6,2.86,.16,5.64-1.02,7.51-3.2,1.77-2.14,2.66-5.23,2.66-9.28v-76.47h26.75Z"
          id="Pfad_896"/>
    <path class="cls-1"
          d="M297.77,468.19c3.86,5.02,5.92,11.2,5.85,17.53,0,9.48-3.24,16.99-9.72,22.54-6.48,5.54-15.51,8.32-27.1,8.32h-51.67v-113.41h49.93c11.27,0,20.09,2.64,26.47,7.91,6.37,5.28,9.56,12.44,9.56,21.49,0,6.68-1.71,12.23-5.14,16.64-3.46,4.44-8.25,7.67-13.66,9.21,6.19,1.25,11.7,4.73,15.49,9.77Zm-55.62-19.15h17.7c4.42,0,7.82-1,10.19-2.99s3.56-4.92,3.55-8.8c0-3.88-1.18-6.84-3.55-8.89-2.37-2.04-5.77-3.07-10.19-3.07h-17.7v23.74Zm30.42,42.09c2.47-2.1,3.71-5.14,3.71-9.12,0-3.98-1.29-7.11-3.87-9.37-2.58-2.26-6.14-3.39-10.67-3.4h-19.59v25.04h19.91c4.53,0,8.03-1.04,10.51-3.14h0Z"
          id="Pfad_897"/>
    <path class="cls-1"
          d="M441.89,403.16v113.41h-27.02v-68.01l-24.81,68.01h-21.81l-24.96-68.18v68.18h-27.02v-113.41h31.92l31.13,78.52,30.81-78.52h31.76Z"
          id="Pfad_898"/>
    <g id="Pfad_899">
      <path class="cls-3"
            d="M482.6,432.84c4.1-7.74,10.31-14.17,17.91-18.53,7.93-4.5,16.93-6.79,26.04-6.64,11.89,0,22.07,3.21,30.54,9.63,8.47,6.42,14.13,15.18,16.98,26.26h-26.83c-1.78-4.04-4.74-7.44-8.49-9.77-3.77-2.27-8.09-3.43-12.49-3.36-7.51,0-13.6,2.68-18.27,8.02s-6.99,12.5-6.99,21.45c0,8.95,2.33,16.1,6.99,21.45,4.66,5.35,10.75,8.03,18.27,8.02,4.39,.07,8.72-1.09,12.49-3.36,3.75-2.33,6.71-5.74,8.49-9.77h26.83c-2.85,11.09-8.51,19.82-16.98,26.19-8.47,6.37-18.65,9.55-30.54,9.56-9.12,.15-18.11-2.14-26.04-6.64-7.58-4.35-13.79-10.74-17.91-18.46-8.56-17-8.56-37.06,0-54.06h0Z"/>
      <path class="cls-1"
            d="M526.55,407.67c-9.7,0-18.38,2.22-26.04,6.64-7.66,4.43-13.63,10.6-17.91,18.53-4.28,7.93-6.42,16.95-6.42,27.07s2.14,19.12,6.42,26.99c4.28,7.88,10.25,14.03,17.91,18.46,7.66,4.43,16.34,6.64,26.04,6.64,11.89,0,22.07-3.19,30.54-9.56,8.46-6.37,14.13-15.1,16.98-26.19h-26.83c-2,4.28-4.83,7.54-8.49,9.77-3.66,2.24-7.83,3.36-12.49,3.36-7.51,0-13.61-2.67-18.27-8.03-4.66-5.35-6.99-12.5-6.99-21.45s2.33-16.1,6.99-21.45c4.66-5.35,10.75-8.02,18.27-8.02,4.66,0,8.82,1.12,12.49,3.36,3.66,2.23,6.49,5.5,8.49,9.78h26.83c-2.85-11.09-8.51-19.85-16.98-26.26-8.47-6.42-18.65-9.63-30.54-9.63m0-4.71c6.4,0,12.45,.88,17.97,2.63,5.58,1.76,10.77,4.44,15.42,7.96,4.65,3.53,8.59,7.76,11.7,12.58,3.09,4.78,5.45,10.26,6.99,16.27l1.51,5.89h-35.91l-1.27-2.72c-1.61-3.45-3.79-5.99-6.67-7.74h0c-2.93-1.8-6.21-2.67-10.03-2.67-6.15,0-10.96,2.1-14.71,6.41-3.93,4.51-5.83,10.51-5.83,18.35s1.91,13.85,5.83,18.35c3.76,4.31,8.57,6.41,14.72,6.41,3.82,0,7.1-.87,10.03-2.67h0c2.88-1.76,5.06-4.29,6.67-7.75l1.27-2.72h35.91l-1.51,5.89c-1.55,6.01-3.9,11.48-7,16.26-3.12,4.81-7.06,9.02-11.72,12.52-4.65,3.5-9.83,6.15-15.41,7.9-5.52,1.73-11.57,2.6-17.96,2.6-5.22,0-10.25-.61-14.95-1.81-4.74-1.21-9.26-3.05-13.45-5.47-4.19-2.42-7.97-5.35-11.24-8.73-3.27-3.37-6.11-7.26-8.45-11.55-2.33-4.29-4.1-8.93-5.26-13.82-1.15-4.83-1.73-10.03-1.73-15.43s.58-10.6,1.73-15.44c1.16-4.89,2.93-9.56,5.25-13.86,2.34-4.32,5.18-8.23,8.45-11.61,3.27-3.39,7.06-6.33,11.25-8.76,4.19-2.42,8.71-4.26,13.45-5.47,4.7-1.2,9.73-1.81,14.95-1.81Z"/>
    </g>
    <g id="Pfad_900">
      <path class="cls-3"
            d="M630.09,433.57c4.31-2.58,9.25-3.92,14.27-3.86v26.4h-6.71c-6.09,0-10.65,1.34-13.7,4.01-3.05,2.67-4.57,7.37-4.57,14.08v37.79h-24.4v-83.75h24.4v15.9c2.69-4.31,6.36-7.93,10.71-10.57Z"/>
      <path class="cls-1"
            d="M594.99,428.24v83.75h24.4v-37.79c0-6.71,1.52-11.41,4.57-14.08,3.04-2.67,7.61-4.01,13.7-4.01h6.71v-26.41c-5.23,0-9.99,1.29-14.27,3.86-4.28,2.58-7.85,6.1-10.7,10.58v-15.9h-24.4m-4.71-4.71h33.82v8.45c1.14-.89,2.32-1.7,3.56-2.45,5.01-3.01,10.63-4.54,16.7-4.54h4.71v35.83h-11.42c-4.88,0-8.44,.96-10.59,2.84-1.94,1.7-2.97,5.35-2.97,10.54v42.5h-33.82v-93.17Z"/>
    </g>
    <g id="Pfad_901">
      <path class="cls-3"
            d="M742.77,476.1h-55.23c.38,5.06,1.97,8.93,4.78,11.6,2.78,2.66,6.5,4.11,10.35,4.01,6.09,0,10.32-2.63,12.7-7.88h25.97c-1.3,5.29-3.76,10.22-7.21,14.45-3.52,4.32-7.99,7.76-13.06,10.07-5.51,2.49-11.5,3.74-17.55,3.65-7.27,.13-14.45-1.63-20.83-5.11-6.07-3.38-11.03-8.45-14.27-14.59-3.43-6.32-5.14-13.71-5.14-22.18s1.69-15.86,5.07-22.18c3.21-6.15,8.14-11.22,14.2-14.59,13.01-6.76,28.48-6.81,41.53-.15,5.95,3.26,10.83,8.18,14.06,14.15,3.49,6.6,5.23,13.98,5.06,21.45,0,2.44-.15,4.88-.43,7.3Zm-24.55-13.86c.17-3.87-1.4-7.62-4.28-10.21-2.96-2.57-6.78-3.92-10.7-3.79-3.78-.11-7.47,1.19-10.35,3.65-2.8,2.43-4.54,5.89-5.21,10.36h30.53Z"/>
      <path class="cls-1"
            d="M703.52,512c6.47,0,12.32-1.21,17.55-3.65,5.23-2.43,9.58-5.79,13.06-10.07,3.47-4.28,5.87-9.1,7.21-14.45h-25.98c-2.38,5.26-6.61,7.88-12.7,7.88-4.09,0-7.54-1.34-10.35-4.01-2.81-2.68-4.4-6.54-4.78-11.6h55.23c.29-2.52,.43-4.96,.43-7.3,0-8.17-1.69-15.32-5.06-21.45-3.38-6.13-8.06-10.85-14.06-14.15-5.99-3.31-12.84-4.96-20.55-4.96s-14.89,1.7-20.98,5.11c-6.09,3.4-10.82,8.26-14.2,14.59-3.38,6.32-5.07,13.71-5.07,22.18s1.71,15.86,5.14,22.18c3.42,6.33,8.18,11.19,14.27,14.59,6.09,3.41,13.03,5.11,20.83,5.11m-.29-63.76c4.28,0,7.85,1.26,10.7,3.79,2.85,2.53,4.28,5.94,4.28,10.21h-30.54c.66-4.47,2.4-7.92,5.21-10.36,2.81-2.43,6.25-3.65,10.35-3.65m.29,68.47c-4.26,0-8.36-.47-12.18-1.41-3.87-.95-7.56-2.39-10.95-4.3-6.85-3.83-12.27-9.37-16.11-16.46-1.9-3.52-3.35-7.37-4.3-11.46-.93-4.03-1.41-8.39-1.41-12.96s.47-8.92,1.39-12.94c.93-4.09,2.36-7.94,4.24-11.46,3.79-7.1,9.19-12.65,16.05-16.48,3.4-1.9,7.1-3.35,11-4.3,3.84-.94,7.98-1.41,12.28-1.41s8.25,.46,12.02,1.37c3.82,.92,7.45,2.33,10.8,4.17,6.75,3.73,12.11,9.11,15.91,16,1.89,3.43,3.32,7.18,4.26,11.15,.92,3.91,1.39,8.14,1.39,12.57,0,2.52-.15,5.16-.46,7.83l-.28,2.49h.21l-.38,1.51-.02,.18h-.02l-1.04,4.16c-1.5,6-4.23,11.48-8.12,16.27-3.92,4.83-8.88,8.65-14.73,11.37h0c-5.83,2.71-12.4,4.09-19.54,4.09Zm-10.23-35.9c.55,1.4,1.31,2.56,2.28,3.48,1.91,1.82,4.23,2.71,7.1,2.71,4.21,0,6.81-1.58,8.41-5.11l.49-1.08h-18.27Zm.9-23.28h18.24c-.41-.73-.95-1.39-1.61-1.97h0c-1.98-1.75-4.46-2.61-7.58-2.61-2.95,0-5.32,.82-7.26,2.5-.69,.6-1.28,1.29-1.78,2.09Z"/>
    </g>
    <g id="Pfad_902">
      <path class="cls-3"
            d="M766.36,447.94c2.76-5.95,7.14-11,12.63-14.59,5.32-3.4,11.52-5.18,17.84-5.11,5.14-.12,10.23,1.09,14.77,3.5,4.02,2.14,7.4,5.31,9.78,9.19v-12.69h24.4v83.75h-24.4v-12.69c-2.46,3.87-5.88,7.03-9.92,9.19-4.54,2.41-9.63,3.61-14.77,3.5-6.28,.06-12.44-1.75-17.7-5.18-5.5-3.64-9.87-8.74-12.63-14.73-6.18-14.06-6.18-30.08,0-44.14h0Zm49.95,7.44c-6.35-6.84-17.05-7.23-23.88-.88-.28,.26-.55,.53-.81,.8-3.38,3.56-5.07,8.45-5.07,14.67,0,6.23,1.69,11.17,5.07,14.81,6.22,6.84,16.8,7.33,23.64,1.11,.37-.33,.72-.68,1.05-1.04,3.38-3.6,5.06-8.51,5.06-14.73s-1.69-11.14-5.06-14.74Z"/>
      <path class="cls-1"
            d="M796.83,428.24c-6.56,0-12.51,1.7-17.84,5.11-5.33,3.4-9.54,8.26-12.63,14.59-3.09,6.32-4.64,13.67-4.64,22.03s1.54,15.74,4.64,22.11c3.09,6.37,7.3,11.28,12.63,14.73,5.33,3.45,11.23,5.18,17.7,5.18,5.61,0,10.54-1.17,14.77-3.5,4.23-2.34,7.54-5.4,9.92-9.19v12.69h24.4v-83.75h-24.4v12.69c-2.28-3.8-5.54-6.86-9.78-9.19-4.23-2.34-9.16-3.5-14.77-3.5m7.14,62.01c-4.85,0-8.97-1.82-12.34-5.47-3.38-3.65-5.07-8.58-5.07-14.81s1.69-11.11,5.07-14.67c3.38-3.55,7.49-5.32,12.34-5.32s8.97,1.8,12.35,5.4c3.38,3.6,5.06,8.52,5.06,14.74s-1.69,11.14-5.06,14.73c-3.38,3.6-7.49,5.4-12.35,5.4m-7.14-66.72c6.4,0,12.13,1.38,17.05,4.09,.97,.54,1.9,1.11,2.79,1.71v-5.8h33.82v93.17h-33.82v-5.89c-.93,.64-1.91,1.24-2.93,1.81h0c-4.92,2.71-10.66,4.09-17.04,4.09-7.37,0-14.18-2-20.26-5.94-6.04-3.91-10.85-9.5-14.3-16.63-1.71-3.51-3-7.35-3.85-11.39-.84-3.98-1.26-8.28-1.26-12.77s.42-8.78,1.26-12.75c.85-4.04,2.15-7.86,3.86-11.35,3.46-7.08,8.28-12.63,14.32-16.49,6.06-3.88,12.92-5.85,20.37-5.85Zm16.04,35.07c-2.51-2.67-5.34-3.91-8.91-3.91s-6.46,1.26-8.93,3.86c-2.54,2.67-3.77,6.41-3.77,11.42s1.25,8.84,3.81,11.61c2.5,2.7,5.33,3.96,8.89,3.96s6.4-1.24,8.91-3.91c2.55-2.72,3.79-6.48,3.79-11.51s-1.24-8.8-3.79-11.52h0Z"/>
    </g>
    <g id="Pfad_903">
      <path class="cls-3"
            d="M916.63,490.29v21.71h-12.74c-9.08,0-16.16-2.27-21.23-6.81-5.08-4.54-7.62-11.95-7.61-22.23v-33.24h-9.96v-21.26h9.96v-20.36h25.04v20.36h16.4v21.26h-16.4v33.54c0,2.5,.59,4.29,1.76,5.39,1.17,1.1,3.12,1.65,5.86,1.64h8.93Z"/>
      <path class="cls-1"
            d="M916.63,512v-21.71h-8.93c-2.73,0-4.68-.54-5.86-1.64-1.17-1.1-1.76-2.9-1.76-5.39v-33.54h16.4v-21.27h-16.4v-20.36h-25.04v20.36h-9.96v21.27h9.96v33.24c0,10.28,2.54,17.69,7.61,22.23,5.08,4.54,12.16,6.81,21.23,6.81h12.74m4.83,4.83h-17.58c-5.02,0-9.59-.65-13.59-1.93-4.17-1.34-7.83-3.4-10.86-6.11-3.15-2.81-5.53-6.52-7.06-11-1.44-4.19-2.16-9.18-2.16-14.83v-28.4h-9.96v-30.93h9.96v-20.36h34.71v20.36h16.4v30.93h-16.4v28.7c0,1.06,.16,1.65,.25,1.86,.21,.1,.92,.34,2.53,.34h13.77v31.38Z"/>
    </g>
    <g id="Pfad_904">
      <path class="cls-3"
            d="M956.14,506.89c-6.19-3.36-11.29-8.42-14.7-14.59-3.57-6.32-5.35-13.71-5.35-22.18-.16-7.72,1.71-15.35,5.42-22.11,3.45-6.2,8.6-11.29,14.84-14.66,13.26-6.81,28.99-6.81,42.24,0,6.24,3.37,11.39,8.46,14.84,14.66,7.26,13.85,7.23,30.38-.07,44.21-3.5,6.21-8.7,11.3-14.98,14.67-6.52,3.45-13.81,5.21-21.19,5.11-7.34,.12-14.58-1.64-21.05-5.1Zm32.96-21.74c3.28-3.51,4.92-8.52,4.92-15.03,0-6.51-1.59-11.52-4.78-15.03-5.92-6.54-16.02-7.05-22.56-1.13-.37,.33-.72,.69-1.06,1.05-3.14,3.45-4.71,8.49-4.71,15.1,0,6.51,1.55,11.52,4.64,15.03,2.89,3.41,7.16,5.34,11.63,5.25,4.54,.05,8.89-1.86,11.92-5.25Z"/>
      <path class="cls-1"
            d="M977.19,512c7.8,0,14.86-1.7,21.19-5.11,6.32-3.4,11.32-8.29,14.98-14.67,3.66-6.37,5.49-13.74,5.49-22.1s-1.81-15.74-5.42-22.11c-3.61-6.37-8.56-11.26-14.84-14.66-6.28-3.41-13.32-5.11-21.12-5.11s-14.84,1.7-21.12,5.11c-6.28,3.4-11.23,8.29-14.84,14.66-3.62,6.37-5.42,13.74-5.42,22.11s1.78,15.86,5.35,22.18c3.57,6.33,8.47,11.19,14.7,14.59,6.23,3.41,13.24,5.11,21.05,5.11m.28-62.16c4.66,0,8.59,1.76,11.77,5.26,3.19,3.5,4.78,8.51,4.78,15.03s-1.64,11.52-4.93,15.03c-3.28,3.5-7.26,5.25-11.92,5.25s-8.54-1.75-11.63-5.25c-3.09-3.51-4.64-8.52-4.64-15.03s1.57-11.65,4.71-15.1c3.14-3.45,7.09-5.18,11.85-5.18m-.28,66.87c-4.26,0-8.37-.47-12.23-1.41-3.89-.94-7.62-2.38-11.08-4.28-6.99-3.81-12.55-9.34-16.54-16.41-1.99-3.52-3.5-7.39-4.49-11.49-.98-4.04-1.47-8.41-1.47-13s.5-8.89,1.49-12.92c1-4.09,2.53-7.96,4.55-11.51,4.04-7.12,9.65-12.66,16.69-16.48,3.48-1.89,7.23-3.33,11.13-4.27,3.86-.93,7.98-1.41,12.24-1.41s8.37,.47,12.24,1.41c3.9,.94,7.65,2.38,11.13,4.27,7.03,3.81,12.65,9.35,16.69,16.47,2.01,3.55,3.54,7.42,4.55,11.51,.99,4.03,1.49,8.38,1.49,12.92s-.51,8.9-1.51,12.94c-1.02,4.09-2.57,7.96-4.61,11.51-4.09,7.12-9.76,12.66-16.84,16.47-3.5,1.89-7.26,3.32-11.17,4.26-3.87,.93-8,1.41-12.25,1.41Zm-8.07-58.52c-2.31,2.54-3.48,6.56-3.48,11.94s1.16,9.31,3.46,11.91c2.2,2.49,4.78,3.65,8.1,3.65s6.07-1.2,8.48-3.76c2.42-2.59,3.65-6.56,3.65-11.81s-1.2-9.27-3.55-11.86c-2.31-2.54-4.95-3.72-8.29-3.72s-6.1,1.16-8.36,3.64h0Z"/>
    </g>
    <g id="Pfad_905">
      <path class="cls-3"
            d="M1072.87,433.57c4.31-2.58,9.25-3.92,14.27-3.86v26.4h-6.71c-6.09,0-10.65,1.34-13.7,4.01-3.05,2.67-4.57,7.37-4.57,14.08v37.79h-24.4v-83.75h24.4v15.9c2.69-4.31,6.36-7.93,10.71-10.57Z"/>
      <path class="cls-1"
            d="M1037.77,428.24v83.75h24.4v-37.79c0-6.71,1.52-11.41,4.57-14.08,3.04-2.67,7.61-4.01,13.7-4.01h6.71v-26.41c-5.23,0-9.99,1.29-14.27,3.86-4.28,2.58-7.85,6.1-10.7,10.58v-15.9h-24.4m-4.71-4.71h33.82v8.45c1.14-.89,2.32-1.7,3.56-2.45,5.01-3.01,10.63-4.54,16.7-4.54h4.71v35.83h-11.42c-4.88,0-8.44,.96-10.59,2.84-1.94,1.71-2.97,5.35-2.97,10.54v42.5h-33.82v-93.17Z"/>
    </g>
    <g id="Pfad_906">
      <path class="cls-3" d="M1221,512h-24.72l-41.35-64.01v64.01h-24.73v-103.78h24.73l41.35,64.3v-64.3h24.72v103.78Z"/>
      <path class="cls-1"
            d="M1221,512v-103.78h-24.72v64.31l-41.35-64.31h-24.73v103.78h24.73v-64.01l41.35,64.01h24.72m4.77,4.77h-32.09l-33.98-52.6v52.6h-34.27v-113.32h32.1l33.97,52.83v-52.83h34.27v113.32Z"/>
    </g>
    <g id="Pfad_907">
      <path class="cls-3"
            d="M1322.69,476.1h-55.23c.38,5.06,1.97,8.93,4.78,11.6,2.78,2.66,6.5,4.11,10.35,4.01,6.09,0,10.32-2.63,12.7-7.88h25.97c-1.3,5.29-3.76,10.22-7.21,14.45-3.52,4.32-7.99,7.76-13.06,10.07-5.51,2.49-11.51,3.74-17.55,3.65-7.27,.13-14.45-1.63-20.83-5.11-6.07-3.38-11.03-8.45-14.27-14.59-3.43-6.32-5.14-13.71-5.14-22.18s1.69-15.86,5.07-22.18c3.2-6.15,8.14-11.22,14.2-14.59,13.01-6.76,28.48-6.81,41.53-.15,5.95,3.26,10.83,8.18,14.05,14.15,3.49,6.6,5.24,13.98,5.07,21.45,0,2.44-.15,4.88-.43,7.3Zm-24.55-13.86c.17-3.87-1.4-7.62-4.28-10.21-2.96-2.57-6.78-3.92-10.7-3.79-3.78-.11-7.47,1.19-10.35,3.65-2.81,2.43-4.54,5.89-5.21,10.36h30.53Z"/>
      <path class="cls-1"
            d="M1283.44,512c6.47,0,12.32-1.21,17.55-3.65,5.23-2.43,9.58-5.79,13.06-10.07,3.47-4.28,5.87-9.1,7.21-14.45h-25.97c-2.38,5.26-6.61,7.88-12.7,7.88-4.09,0-7.54-1.34-10.35-4.01-2.81-2.68-4.4-6.54-4.78-11.6h55.23c.29-2.52,.43-4.96,.43-7.3,0-8.17-1.69-15.32-5.07-21.45-3.38-6.13-8.06-10.85-14.05-14.15-6-3.31-12.84-4.96-20.55-4.96s-14.89,1.7-20.98,5.11c-6.09,3.4-10.82,8.26-14.2,14.59-3.38,6.32-5.07,13.71-5.07,22.18s1.71,15.86,5.14,22.18c3.42,6.33,8.18,11.19,14.27,14.59,6.09,3.41,13.03,5.11,20.83,5.11m-.28-63.76c4.28,0,7.85,1.26,10.7,3.79,2.85,2.53,4.28,5.94,4.28,10.21h-30.54c.66-4.47,2.4-7.92,5.21-10.36,2.8-2.43,6.25-3.65,10.35-3.65m.28,68.47c-4.26,0-8.36-.47-12.18-1.41-3.87-.95-7.56-2.39-10.95-4.3-6.85-3.83-12.28-9.37-16.11-16.46-1.91-3.51-3.35-7.37-4.3-11.46-.93-4.03-1.41-8.39-1.41-12.96s.47-8.92,1.39-12.94c.93-4.09,2.36-7.94,4.24-11.46,3.79-7.1,9.19-12.64,16.05-16.48,3.4-1.9,7.1-3.35,10.99-4.3,3.84-.93,7.97-1.41,12.28-1.41s8.25,.46,12.02,1.37c3.82,.92,7.45,2.33,10.8,4.17,6.75,3.73,12.1,9.11,15.9,16,1.89,3.42,3.32,7.18,4.26,11.15,.92,3.91,1.39,8.14,1.39,12.57,0,2.51-.15,5.14-.46,7.83l-.28,2.49h.2l-.37,1.5-.02,.18h-.03l-1.04,4.16c-1.49,6-4.23,11.48-8.12,16.28-3.92,4.83-8.88,8.65-14.74,11.37-5.83,2.71-12.4,4.09-19.54,4.09Zm-10.23-35.9c.55,1.4,1.31,2.56,2.28,3.48,1.91,1.82,4.23,2.71,7.09,2.71,4.21,0,6.81-1.58,8.41-5.11l.49-1.08h-18.27Zm.9-23.28h18.24c-.41-.73-.95-1.39-1.61-1.97h0c-1.98-1.75-4.46-2.61-7.58-2.61-2.95,0-5.32,.82-7.26,2.49-.69,.6-1.28,1.29-1.79,2.09Z"/>
    </g>
    <g id="Pfad_908">
      <path class="cls-3"
            d="M1392.27,490.25v21.75h-12.76c-9.09,0-16.18-2.28-21.27-6.82-5.09-4.55-7.63-11.97-7.63-22.27v-33.29h-9.97v-21.3h9.97v-20.39h25.08v20.39h16.43v21.3h-16.43v33.59c0,2.5,.59,4.3,1.76,5.4,1.17,1.1,3.13,1.65,5.87,1.65h8.95Z"/>
      <path class="cls-1"
            d="M1392.27,512v-21.75h-8.95c-2.74,0-4.69-.54-5.87-1.65-1.17-1.1-1.76-2.9-1.76-5.4v-33.59h16.43v-21.3h-16.43v-20.39h-25.09v20.39h-9.98v21.3h9.98v33.29c0,10.3,2.54,17.72,7.63,22.27,5.09,4.55,12.18,6.82,21.27,6.82h12.76m4.84,4.84h-17.61c-5.03,0-9.61-.65-13.62-1.94-4.18-1.34-7.84-3.4-10.88-6.12-3.15-2.82-5.53-6.53-7.07-11.02-1.44-4.2-2.17-9.2-2.17-14.86v-28.45h-9.98v-30.99h9.98v-20.39h34.77v20.39h16.43v30.99h-16.43v28.75c0,1.16,.18,1.69,.25,1.86,.22,.1,.92,.34,2.53,.34h13.79v31.43Z"/>
    </g>
    <g id="Pfad_909">
      <path class="cls-3"
            d="M1535.42,428.24l-21.55,83.75h-26.97l-12.56-52.82-12.99,52.82h-26.83l-21.69-83.75h24.4l11.27,60.55,13.42-60.55h25.83l13.56,60.26,11.13-60.26h22.98Z"/>
      <path class="cls-1"
            d="M1412.83,428.24l21.69,83.75h26.83l12.99-52.82,12.56,52.82h26.97l21.55-83.75h-22.98l-11.13,60.26-13.56-60.26h-25.83l-13.41,60.55-11.27-60.55h-24.4m-6.09-4.71h34.4l7.76,41.68,9.23-41.68h33.38l9.33,41.49,7.66-41.49h32.98l-23.98,93.17h-34.34l-8.91-37.49-9.22,37.49h-34.17l-24.13-93.17Z"/>
    </g>
    <g id="Pfad_910">
      <path class="cls-3"
            d="M1570.42,506.89c-6.19-3.36-11.29-8.42-14.7-14.59-3.57-6.32-5.35-13.71-5.35-22.18-.16-7.72,1.71-15.35,5.42-22.11,3.45-6.2,8.6-11.29,14.84-14.66,13.26-6.81,28.98-6.81,42.24,0,6.25,3.37,11.4,8.46,14.84,14.66,3.71,6.77,5.58,14.39,5.42,22.11,.16,7.72-1.73,15.35-5.49,22.1-3.5,6.21-8.7,11.3-14.98,14.67-6.52,3.45-13.81,5.21-21.19,5.11-7.34,.12-14.58-1.64-21.05-5.1Zm32.97-21.74c3.28-3.51,4.92-8.52,4.92-15.03,0-6.51-1.59-11.52-4.78-15.03-5.92-6.54-16.02-7.04-22.56-1.13-.37,.33-.72,.69-1.06,1.05-3.14,3.45-4.71,8.49-4.71,15.1,0,6.51,1.55,11.52,4.64,15.03,2.89,3.41,7.16,5.34,11.63,5.25,4.54,.05,8.89-1.86,11.92-5.25Z"/>
      <path class="cls-1"
            d="M1591.47,512c7.8,0,14.86-1.7,21.19-5.11,6.32-3.4,11.32-8.29,14.98-14.67,3.66-6.37,5.49-13.74,5.49-22.1s-1.81-15.74-5.42-22.11c-3.61-6.37-8.56-11.26-14.84-14.66-6.28-3.41-13.32-5.11-21.12-5.11s-14.84,1.7-21.12,5.11c-6.28,3.4-11.23,8.29-14.84,14.66-3.62,6.37-5.42,13.74-5.42,22.11s1.78,15.86,5.35,22.18c3.57,6.33,8.47,11.19,14.7,14.59,6.23,3.41,13.25,5.11,21.05,5.11m.28-62.16c4.66,0,8.58,1.76,11.77,5.26,3.19,3.5,4.78,8.51,4.78,15.03s-1.64,11.52-4.92,15.03c-3.28,3.5-7.26,5.25-11.92,5.25s-8.54-1.75-11.63-5.25c-3.09-3.51-4.64-8.52-4.64-15.03s1.57-11.65,4.71-15.1c3.14-3.45,7.09-5.18,11.84-5.18m-.28,66.87c-4.26,0-8.37-.47-12.22-1.41-3.89-.94-7.62-2.38-11.09-4.28-6.99-3.82-12.55-9.34-16.54-16.41-1.99-3.52-3.5-7.39-4.49-11.49-.97-4.04-1.47-8.41-1.47-13s.5-8.89,1.49-12.92c1-4.09,2.53-7.96,4.55-11.51,4.04-7.12,9.66-12.66,16.7-16.48,3.48-1.89,7.22-3.33,11.13-4.27,3.86-.93,7.98-1.41,12.24-1.41,8.57,0,16.43,1.91,23.37,5.68,7.03,3.81,12.65,9.35,16.69,16.47,2.01,3.55,3.54,7.42,4.54,11.51,.99,4.03,1.49,8.38,1.49,12.92s-.51,8.9-1.51,12.94c-1.02,4.09-2.57,7.96-4.61,11.51-4.09,7.12-9.76,12.66-16.84,16.47-3.5,1.89-7.26,3.32-11.18,4.26-3.88,.93-8,1.41-12.25,1.41Zm.28-62.16c-3.44,0-6.1,1.16-8.36,3.64-2.31,2.54-3.48,6.55-3.48,11.93s1.16,9.31,3.46,11.91c2.2,2.5,4.77,3.66,8.1,3.66s6.07-1.19,8.48-3.76h0c2.42-2.59,3.65-6.56,3.65-11.81s-1.2-9.27-3.55-11.86c-2.31-2.54-4.94-3.72-8.29-3.72Z"/>
    </g>
    <g id="Pfad_911">
      <path class="cls-3"
            d="M1687.16,433.57c4.31-2.58,9.25-3.92,14.27-3.86v26.4h-6.71c-6.09,0-10.65,1.34-13.7,4.01-3.05,2.67-4.57,7.37-4.57,14.08v37.79h-24.4v-83.75h24.4v15.9c2.69-4.31,6.36-7.93,10.71-10.57Z"/>
      <path class="cls-1"
            d="M1652.06,428.24v83.75h24.4v-37.79c0-6.71,1.52-11.41,4.57-14.08,3.04-2.67,7.61-4.01,13.7-4.01h6.71v-26.41c-5.23,0-9.99,1.29-14.27,3.86-4.28,2.58-7.85,6.1-10.7,10.58v-15.9h-24.4m-4.71-4.71h33.82v8.45c1.14-.89,2.32-1.7,3.56-2.45h0c5-3.01,10.62-4.54,16.7-4.54h4.71v35.83h-11.42c-4.88,0-8.44,.96-10.59,2.84-1.94,1.7-2.97,5.35-2.97,10.54v42.5h-33.82v-93.17Z"/>
    </g>
    <g id="Pfad_912">
      <path class="cls-3"
            d="M1767.5,512l-23.39-32.91v32.91h-23.52v-104.08h23.52v57.53l24.79-37.2h26.4l-30.82,44.65,32.19,39.1h-29.16Z"/>
      <path class="cls-1"
            d="M1796.66,512l-32.19-39.1,30.82-44.65h-26.4l-24.78,37.2v-57.53h-23.52v104.08h23.52v-32.91l23.39,32.91h29.16m9.62,4.54h-41.13l-16.5-23.22v23.22h-32.6v-113.16h32.6v47.06l17.81-26.73h37.48l-33.79,48.95,36.12,43.88Z"/>
    </g>
  </g>
</svg>
