<?xml version="1.0" encoding="UTF-8"?><svg id="Ebene_15" xmlns="http://www.w3.org/2000/svg" xmlns:xlink="http://www.w3.org/1999/xlink" viewBox="0 0 1920 2687"><defs><style>.cls-1{fill:#fff;}.cls-2{fill:url(#Unbenannter_Verlauf_4);}.cls-3{fill:#52ff98;}</style><radialGradient id="Unbenannter_Verlauf_4" cx="1.06" cy="1080.69" fx="1.06" fy="1080.69" r=".5" gradientTransform="translate(172 1365578) scale(1263 -1263)" gradientUnits="userSpaceOnUse"><stop offset="0" stop-color="#184854"/><stop offset="1" stop-color="#1d1c2d" stop-opacity="0"/></radialGradient></defs><circle id="Ellipse_89" class="cls-2" cx="1507.28" cy="664.9" r="637.72"/><g id="Ebene_7"><g id="Gruppe_66"><g id="Gruppe_64"><g id="Gruppe_63"><path id="Pfad_822" class="cls-3" d="M-9,978.4v23.01c11.95-2.49,24-4.48,36.15-5.98,97.35-11.95,188.09,14.89,277.99,49.46,31.73,12.2,63.57,24.86,95.81,36.09,2.33,.82,4.67,1.62,7,2.41,53.48,18.24,108.12,32.18,165.26,33.25,194.08,3.64,365.82-118.51,494.45-253,143.73-150.29,260.63-332.17,436.67-448.43,6.4-4.23,12.9-8.35,19.49-12.35,2.58-1.57,5.15-3.11,7.76-4.64h.01c80.36-47.09,172.91-75.34,266.51-61.08,50.46,7.7,94.26,28.64,131.81,58.68v-29.44c-.75-.55-1.5-1.07-2.26-1.61-75.54-52.9-172.84-64.51-261.63-44.95-62.26,13.72-119.89,41.1-172.99,75.9-2.67,1.75-5.32,3.51-7.96,5.29-36.33,24.52-70.5,52.42-102.53,81.67-77.83,71.03-145.25,152.39-213.24,232.6-129.79,153.12-276.92,315.38-479.79,365.52-47.45,11.72-96.58,16.29-145.31,11.68-37.23-3.51-73.52-12.34-109.05-23.61-2.32-.74-4.64-1.48-6.95-2.24h0c-8.03-2.62-16.01-5.36-23.96-8.18-88.78-31.51-175.26-73.74-269.74-85.42-47.81-5.82-96.24-4.02-143.49,5.33h-.01Z"/></g></g><g id="Gruppe_65"><path id="Pfad_823" class="cls-1" d="M-9,1146.63v5.46c147.84,34.78,293.2-5.25,416.96-68.69,9.19-4.71,18.25-9.54,27.2-14.49,54.07-29.9,103.5-63.75,146.57-96.9,77.38-59.55,151.35-127.71,222.87-193.62,92.6-85.31,188.35-173.53,292.25-243.74,71.49-48.31,222.49-134.49,388.22-133.6,12.84,.06,25.75,.67,38.76,1.83,60.7,5.29,119.5,23.78,172.3,54.18,89.5,51.35,167.73,139.83,233.78,264.15v-9.98c-65.73-121.43-143.3-208.17-231.88-259-51.1-29.43-107.79-47.82-166.43-53.99h-.01c-12.92-1.39-25.77-2.22-38.56-2.48-170.02-3.82-325.59,84.83-398.64,134.19-104.18,70.4-200.04,158.73-292.76,244.15-71.46,65.84-145.35,133.93-222.57,193.37-44.19,34.01-95.11,68.78-150.85,99.21h0c-8.95,4.91-18.03,9.68-27.24,14.32-122.15,61.71-264.93,100.02-409.96,65.64h-.01Z"/></g></g></g><g id="HG"><path id="Pfad_691" class="cls-1" d="M1568.58,524.63l-16.76,3.87-3.87-16.76-10.77,2.49,3.87,16.76-16.76,3.87,2.49,10.77,16.76-3.87,3.87,16.76,10.77-2.49-3.87-16.76,16.76-3.87-2.49-10.77Z"/></g><g id="HG-2"><path id="Pfad_691-2" class="cls-1" d="M816.99,2547.52l-10.82-13.37,13.37-10.82-6.96-8.59-13.37,10.82-10.82-13.37-8.59,6.96,10.82,13.37-13.37,10.82,6.96,8.59,13.37-10.82,10.82,13.37,8.59-6.96Z"/></g><g id="HG-3"><path id="Pfad_690" class="cls-3" d="M1652.02,624.22l-3.01,9.81-9.81-3.01-1.93,6.31,9.81,3.01-3.01,9.81,6.3,1.93,3.01-9.81,9.81,3.01,1.93-6.31-9.81-3,3.01-9.81-6.3-1.93h0Z"/></g><g id="HG-4"><g id="Gruppe_45"><path id="Pfad_23" class="cls-3" d="M683.3,992.48c0,1.72-1.39,3.11-3.11,3.11-1.72,0-3.11-1.39-3.11-3.11,0-1.72,1.39-3.11,3.11-3.11h0c1.72,0,3.11,1.39,3.11,3.11Z"/><path id="Pfad_23-2" class="cls-3" d="M160.2,566.33c0,1.72-1.39,3.11-3.11,3.11-1.72,0-3.11-1.39-3.11-3.11,0-1.72,1.39-3.11,3.11-3.11h0c1.72,0,3.11,1.39,3.11,3.11Z"/><path id="Pfad_24" class="cls-3" d="M838.32,1383.04c0,1.72-1.39,3.11-3.11,3.11s-3.11-1.39-3.11-3.11,1.39-3.11,3.11-3.11h0c1.72,0,3.11,1.39,3.11,3.11Z"/><circle id="Ellipse_1" class="cls-3" cx="320.61" cy="1205.51" r="3.11"/><circle id="Ellipse_2" class="cls-3" cx="1845.69" cy="1235.03" r="3.11"/><path id="Pfad_26" class="cls-3" d="M1524.43,646.31c0,1.72-1.39,3.11-3.11,3.11s-3.11-1.39-3.11-3.11,1.39-3.11,3.11-3.11h0c1.72,0,3.11,1.39,3.11,3.11Z"/><path id="Pfad_27" class="cls-1" d="M1383.73,1206.54c0,1.72-1.39,3.11-3.11,3.11-1.72,0-3.11-1.39-3.11-3.11s1.39-3.11,3.11-3.11h0c1.72,0,3.11,1.39,3.11,3.11Z"/><path id="Pfad_28" class="cls-1" d="M1524.43,1015.82c0,1.72-1.39,3.11-3.11,3.11-1.72,0-3.11-1.39-3.11-3.11s1.39-3.11,3.11-3.11h0c1.72,0,3.11,1.39,3.11,3.11Z"/><path id="Pfad_28-2" class="cls-1" d="M999.32,1255.15c0,1.72-1.39,3.11-3.11,3.11-1.72,0-3.11-1.39-3.11-3.11s1.39-3.11,3.11-3.11h0c1.72,0,3.11,1.39,3.11,3.11Z"/><path id="Pfad_29" class="cls-1" d="M654.69,723.8c-1.72,0-3.1-1.4-3.1-3.11,0-1.71,1.4-3.1,3.11-3.1s3.1,1.4,3.1,3.11c0,1.71-1.39,3.1-3.1,3.1h-.01Z"/><path id="Pfad_30" class="cls-1" d="M1777.39,398.89c0,1.71-1.4,3.1-3.11,3.1-1.72,0-3.1-1.4-3.1-3.11,0-1.71,1.39-3.1,3.1-3.1,1.72,0,3.11,1.39,3.11,3.11h0Z"/><path id="Pfad_31" class="cls-1" d="M1096.76,630.63c0,1.72-1.39,3.11-3.11,3.11s-3.11-1.39-3.11-3.11c0-1.72,1.39-3.11,3.11-3.11h0c1.72,0,3.11,1.39,3.11,3.11Z"/><path id="Pfad_32" class="cls-1" d="M367.92,1176.22c0,1.72-1.39,3.11-3.11,3.11-1.72,0-3.11-1.39-3.11-3.11s1.39-3.11,3.11-3.11h0c1.72,0,3.11,1.39,3.11,3.11Z"/></g></g><g id="HG-5"><g id="Gruppe_45-2"><path id="Pfad_23-3" class="cls-3" d="M1275.36,2139.67c0,1.72,1.39,3.11,3.11,3.11,1.72,0,3.11-1.39,3.11-3.11,0-1.72-1.39-3.11-3.11-3.11h0c-1.72,0-3.11,1.39-3.11,3.11Z"/><path id="Pfad_23-4" class="cls-3" d="M1798.46,1713.51c0,1.72,1.39,3.11,3.11,3.11,1.72,0,3.11-1.39,3.11-3.11,0-1.72-1.39-3.11-3.11-3.11h0c-1.72,0-3.11,1.39-3.11,3.11Z"/><path id="Pfad_24-2" class="cls-3" d="M1120.35,2530.22c0,1.72,1.39,3.11,3.11,3.11s3.11-1.39,3.11-3.11-1.39-3.11-3.11-3.11h0c-1.72,0-3.11,1.39-3.11,3.11Z"/><circle id="Ellipse_1-2" class="cls-3" cx="1638.06" cy="2352.69" r="3.11"/><circle id="Ellipse_2-2" class="cls-3" cx="112.98" cy="2382.21" r="3.11"/><path id="Pfad_26-2" class="cls-3" d="M434.23,1793.49c0,1.72,1.39,3.11,3.11,3.11s3.11-1.39,3.11-3.11-1.39-3.11-3.11-3.11h0c-1.72,0-3.11,1.39-3.11,3.11Z"/><path id="Pfad_27-2" class="cls-1" d="M574.93,2353.72c0,1.72,1.39,3.11,3.11,3.11,1.72,0,3.11-1.39,3.11-3.11s-1.39-3.11-3.11-3.11h0c-1.72,0-3.11,1.39-3.11,3.11Z"/><path id="Pfad_28-3" class="cls-1" d="M434.23,2163c0,1.72,1.39,3.11,3.11,3.11,1.72,0,3.11-1.39,3.11-3.11s-1.39-3.11-3.11-3.11h0c-1.72,0-3.11,1.39-3.11,3.11Z"/><path id="Pfad_28-4" class="cls-1" d="M959.35,2402.34c0,1.72,1.39,3.11,3.11,3.11,1.72,0,3.11-1.39,3.11-3.11s-1.39-3.11-3.11-3.11h0c-1.72,0-3.11,1.39-3.11,3.11Z"/><path id="Pfad_29-2" class="cls-1" d="M1303.98,1870.99c1.72,0,3.1-1.4,3.1-3.11,0-1.71-1.4-3.1-3.11-3.1s-3.1,1.4-3.1,3.11c0,1.71,1.39,3.1,3.1,3.1h.01Z"/><path id="Pfad_30-2" class="cls-1" d="M181.28,1546.07c0,1.71,1.4,3.1,3.11,3.1,1.72,0,3.1-1.4,3.1-3.11,0-1.71-1.39-3.1-3.1-3.1-1.72,0-3.11,1.39-3.11,3.11Z"/><path id="Pfad_31-2" class="cls-1" d="M861.91,1777.81c0,1.72,1.39,3.11,3.11,3.11s3.11-1.39,3.11-3.11c0-1.72-1.39-3.11-3.11-3.11h0c-1.72,0-3.11,1.39-3.11,3.11Z"/><path id="Pfad_32-2" class="cls-1" d="M1590.75,2323.41c0,1.72,1.39,3.11,3.11,3.11,1.72,0,3.11-1.39,3.11-3.11s-1.39-3.11-3.11-3.11h0c-1.72,0-3.11,1.39-3.11,3.11Z"/></g></g></svg>